<svg width="104" height="75" viewBox="0 0 104 75" fill="none" xmlns="http://www.w3.org/2000/svg">
<path d="M42.2095 0H3.04688C1.36395 0 0 1.37074 0 3.06204V42.4196C0 44.1109 1.36395 45.4816 3.04688 45.4816H19.5809V71.938C19.5809 73.6285 20.9449 75 22.6278 75H32.4191C33.7299 75 34.8947 74.1563 35.3088 72.906L45.0993 43.3884C45.2033 43.0759 45.2564 42.7489 45.2564 42.4196V3.06204C45.2564 1.37074 43.8925 0 42.2095 0V0ZM39.1627 41.9228L30.2228 68.8751H25.6747V42.4196C25.6747 40.7283 24.3107 39.3576 22.6278 39.3576H6.09375V6.12408H39.1627V41.9228Z" fill="#020E10"/>
<path d="M100.953 0H61.79C60.1071 0 58.7432 1.37074 58.7432 3.06204V42.4196C58.7432 44.1109 60.1071 45.4816 61.79 45.4816H78.3249V71.938C78.3249 73.6285 79.6888 75 81.3718 75H91.1622C92.4738 75 93.6378 74.1563 94.0528 72.906L103.843 43.3884C103.946 43.0759 104 42.7489 104 42.4196V3.06204C104 1.37074 102.636 0 100.953 0V0ZM97.9058 41.9228L88.9659 68.8751H84.4186V42.4196C84.4186 40.7283 83.0539 39.3576 81.3718 39.3576H64.8369V6.12408H97.9058V41.9228Z" fill="#020E10"/>
</svg>
