<svg width="43" height="43" viewBox="0 0 43 43" fill="none" xmlns="http://www.w3.org/2000/svg">
<path d="M26.6113 17.1863L19.6145 24.184L16.3888 20.9571C16.2439 20.8171 16.0499 20.7397 15.8485 20.7415C15.6471 20.7432 15.4545 20.824 15.3121 20.9664C15.1697 21.1088 15.0889 21.3015 15.0872 21.5029C15.0854 21.7043 15.1629 21.8983 15.3028 22.0432L19.0723 25.814C19.2169 25.9569 19.412 26.037 19.6153 26.037C19.8185 26.037 20.0136 25.9569 20.1583 25.814L27.6973 18.2724C27.8372 18.1275 27.9146 17.9335 27.9128 17.7321C27.9111 17.5307 27.8303 17.338 27.6879 17.1956C27.5455 17.0532 27.3529 16.9724 27.1515 16.9707C26.9501 16.9689 26.7561 17.0463 26.6113 17.1863Z" fill="white"/>
<path d="M5.89358 9.88587C6.09728 9.88587 6.29263 9.80494 6.43667 9.66089C6.5807 9.51684 6.66162 9.32146 6.66162 9.11773C6.66141 8.46505 6.92004 7.83893 7.38077 7.37669C7.84151 6.91446 8.46673 6.65385 9.11933 6.65201H13.6968C14.2211 6.65345 14.7405 6.55094 15.225 6.3504C15.7095 6.14987 16.1494 5.85528 16.5193 5.48368L19.7627 2.25597C20.231 1.80848 20.8538 1.5589 21.5015 1.55919C22.1492 1.55947 22.7717 1.80961 23.2396 2.2575C28.301 7.29495 26.7757 6.64356 33.8807 6.65125C34.5333 6.65308 35.1586 6.91369 35.6193 7.37593C36.08 7.83816 36.3386 8.46428 36.3384 9.11697V13.7035C36.3371 14.2286 36.4399 14.7488 36.641 15.2339C36.842 15.719 37.1373 16.1593 37.5097 16.5295L40.7493 19.7541C41.2085 20.2187 41.4663 20.8457 41.4665 21.499C41.4668 22.1524 41.2097 22.7795 40.7508 23.2445L37.5082 26.4723C37.1361 26.8423 36.8412 27.2825 36.6404 27.7673C36.4396 28.2521 36.337 28.7719 36.3384 29.2967V33.8748C36.3397 34.5285 36.0816 35.156 35.6209 35.6197C35.1601 36.0834 34.5343 36.3453 33.8807 36.3482H33.1434C32.9397 36.3482 32.7444 36.4291 32.6003 36.5732C32.4563 36.7172 32.3754 36.9126 32.3754 37.1163C32.3754 37.3201 32.4563 37.5154 32.6003 37.6595C32.7444 37.8035 32.9397 37.8845 33.1434 37.8845C33.7242 37.9722 34.3171 37.9346 34.8822 37.7742C35.4473 37.6138 35.9716 37.3343 36.4197 36.9545C36.8679 36.5747 37.2296 36.1034 37.4805 35.5722C37.7314 35.041 37.8658 34.4622 37.8745 33.8748V29.2967C37.8764 28.6461 38.1344 28.0225 38.5926 27.5607L41.8376 24.3292C42.583 23.5751 43.0007 22.5574 43 21.497C42.9993 20.4367 42.5802 19.4195 41.8337 18.6664L38.5942 15.4418C38.135 14.9796 37.8764 14.3551 37.8745 13.7035V9.11773C37.8743 8.05773 37.4537 7.04109 36.705 6.29083C35.9563 5.54058 34.9406 5.11798 33.8807 5.11574H29.3033C28.98 5.11641 28.6597 5.05294 28.3611 4.929C28.0625 4.80506 27.7915 4.62311 27.5637 4.39369L24.3249 1.17059C23.5762 0.421417 22.5607 0.000310407 21.5017 -0.000121737C20.4426 -0.000553882 19.4268 0.419724 18.6775 1.16828L15.4349 4.396C15.2071 4.62488 14.9362 4.80634 14.6379 4.92988C14.3396 5.05342 14.0197 5.11659 13.6968 5.11574H9.11933C8.05947 5.11798 7.04377 5.54058 6.29506 6.29083C5.54634 7.04109 5.12575 8.05773 5.12555 9.11773C5.12555 9.32146 5.20647 9.51684 5.3505 9.66089C5.49454 9.80494 5.68989 9.88587 5.89358 9.88587ZM4.4059 27.5584C4.86509 28.0206 5.12365 28.6451 5.12555 29.2967V33.8748C5.12473 34.9358 5.54475 35.9538 6.29347 36.7055C7.04218 37.4572 8.05845 37.8812 9.11933 37.8845H13.6968C14.3479 37.8827 14.9731 38.1391 15.4356 38.5973L18.6767 41.8304C19.4256 42.5792 20.4411 42.9999 21.5 42.9999C22.5589 42.9999 23.5745 42.5792 24.3233 41.8304L27.5621 38.6004C28.0249 38.1407 28.651 37.8832 29.3033 37.8845C29.5069 37.8845 29.7023 37.8035 29.8463 37.6595C29.9904 37.5154 30.0713 37.3201 30.0713 37.1163C29.8608 35.4917 27.1389 36.7599 26.48 37.5096L23.2381 40.7435C22.7764 41.2035 22.1513 41.4618 21.4996 41.4618C20.848 41.4618 20.2229 41.2035 19.7612 40.7435L16.517 37.5065C15.7672 36.7625 14.7531 36.346 13.6968 36.3482H9.11933C8.46572 36.3453 7.83991 36.0834 7.37918 35.6197C6.91844 35.156 6.66039 34.5285 6.66162 33.8748V29.2967C6.66298 28.7716 6.56015 28.2514 6.3591 27.7663C6.15805 27.2813 5.86277 26.8409 5.49037 26.4707L2.25387 23.2492C1.79353 22.7846 1.53494 22.1572 1.53422 21.5032C1.5335 20.8492 1.79071 20.2212 2.25003 19.7557L5.4919 16.528C5.86392 16.1579 6.15885 15.7177 6.35963 15.2329C6.56042 14.7481 6.66306 14.2283 6.66162 13.7035V12.9584C6.66162 12.7547 6.5807 12.5593 6.43667 12.4153C6.29263 12.2712 6.09728 12.1903 5.89358 12.1903C5.68989 12.1903 5.49454 12.2712 5.3505 12.4153C5.20647 12.5593 5.12555 12.7547 5.12555 12.9584V13.7035C5.12362 14.3541 4.86564 14.9777 4.40744 15.4395L1.1648 18.668C0.418332 19.4219 -0.000287512 20.4402 1.48154e-07 21.5012C0.000287808 22.5622 0.41946 23.5802 1.16634 24.3338L4.4059 27.5584Z" fill="white"/>
<path d="M30.1887 13.8956C30.3325 13.7515 30.4132 13.5564 30.4132 13.3529C30.4132 13.1494 30.3325 12.9542 30.1887 12.8102C29.0504 11.6653 27.6964 10.7576 26.2049 10.1396C24.7135 9.52164 23.1143 9.20564 21.5 9.20992C10.6338 9.15999 5.11013 22.5371 12.8089 30.1931C22.7949 39.768 38.3437 28.6999 32.5589 16.1416C32.4651 15.9669 32.3075 15.8353 32.1189 15.7742C31.9303 15.7132 31.7254 15.7274 31.5471 15.8139C31.3688 15.9004 31.2308 16.0525 31.162 16.2384C31.0932 16.4243 31.0989 16.6296 31.178 16.8114C36.26 27.772 22.596 37.4958 13.8949 29.107C7.16078 22.4065 11.9902 10.7024 21.5 10.7462C22.9126 10.7423 24.312 11.0186 25.6171 11.5592C26.9223 12.0998 28.1072 12.8939 29.1035 13.8956C29.2475 14.0393 29.4426 14.1201 29.6461 14.1201C29.8496 14.1201 30.0447 14.0393 30.1887 13.8956Z" fill="white"/>
</svg>
