<svg width="41" height="45" viewBox="0 0 41 45" fill="none" xmlns="http://www.w3.org/2000/svg">
<path d="M21.4228 37.6993C20.1719 37.9948 18.8909 38.144 17.6056 38.144C8.43457 38.144 1 30.7094 1 21.5385C1 12.3675 8.43457 4.9329 17.6056 4.9329C26.7766 4.9329 34.2111 12.3675 34.2111 21.5385C34.2111 23.6938 33.7915 25.8285 32.9758 27.8235M2.4647 8.86955L4.93665 6.39759M4.00971 7.94252L5.55464 9.48754M30.2745 6.39751L32.7464 8.86955M31.2014 7.94252L29.6565 9.48754M13.6727 4.9329V1H21.5385V4.9329M17.605 8.4288H17.6056M11.0502 10.1855L11.0507 10.1851M6.25199 14.9842L6.25234 14.9836M4.49591 21.5391V21.5385M6.2526 28.0938L6.25234 28.0933M11.0513 32.892L11.0507 32.8917M17.6062 34.648H17.6056M30.7151 21.5378V21.5385M28.9585 14.9831L28.9588 14.9836M24.1598 10.1849L24.1604 10.1851M17.6056 19.3219V12.3618" stroke="white" stroke-width="1.5" stroke-miterlimit="22.9256" stroke-linecap="round" stroke-linejoin="round"/>
<path fill-rule="evenodd" clip-rule="evenodd" d="M32.7964 28.0674C33.674 28.3678 34.4845 28.8364 35.1825 29.4472L37.4158 28.4688L39.4551 32.0008L37.4922 33.4448C37.581 33.8988 37.6257 34.3605 37.6256 34.8231C37.6256 35.2947 37.5795 35.7555 37.4922 36.2015L39.4551 37.6455L37.4158 41.1776L35.1825 40.1992C34.4844 40.8099 33.6739 41.2786 32.7963 41.5789L32.5273 44H28.4488L28.1798 41.579C27.3021 41.2787 26.4916 40.81 25.7935 40.1992L23.5603 41.1777L21.521 37.6456L23.484 36.2015C23.3951 35.7474 23.3504 35.2859 23.3505 34.8232C23.3505 34.3516 23.3966 33.8909 23.4839 33.4449L21.521 32.0009L23.5603 28.4689L25.7935 29.4473C26.4915 28.8365 27.302 28.3679 28.1796 28.0675L28.4486 25.6464H32.5271L32.7964 28.0674Z" stroke="white" stroke-width="1.5" stroke-miterlimit="22.9256" stroke-linecap="round" stroke-linejoin="round"/>
<path fill-rule="evenodd" clip-rule="evenodd" d="M30.4882 37.3722C31.8922 37.3722 33.0373 36.2271 33.0373 34.8231C33.0373 33.419 31.8922 32.2739 30.4882 32.2739C29.0842 32.2739 27.9391 33.419 27.9391 34.8231C27.939 36.2271 29.0841 37.3722 30.4882 37.3722ZM17.6056 23.5049C18.6887 23.5049 19.5721 22.6216 19.5721 21.5385C19.5721 20.4554 18.6887 19.572 17.6056 19.572C16.5225 19.572 15.6392 20.4554 15.6392 21.5385C15.6392 22.6216 16.5226 23.5049 17.6056 23.5049Z" stroke="white" stroke-width="1.5" stroke-miterlimit="22.9256" stroke-linecap="round" stroke-linejoin="round"/>
</svg>
