<svg width="45" height="45" viewBox="0 0 45 45" fill="none" xmlns="http://www.w3.org/2000/svg">
<path d="M26.0018 14.2441L19.218 30.4084" stroke="white" stroke-miterlimit="10" stroke-linecap="round" stroke-linejoin="round"/>
<path d="M20.9165 16.9739C20.9165 18.8976 19.5745 20.4571 17.9191 20.4571C16.2636 20.4571 14.9216 18.8976 14.9216 16.9739C14.9216 15.0503 16.2636 13.4907 17.9191 13.4907C19.5745 13.4907 20.9165 15.0503 20.9165 16.9739Z" stroke="white" stroke-miterlimit="10" stroke-linecap="round" stroke-linejoin="round"/>
<path d="M30.0784 28.0259C30.0784 29.9495 28.7364 31.509 27.081 31.509C25.4255 31.509 24.0835 29.9495 24.0835 28.0259C24.0835 26.1021 25.4255 24.5427 27.081 24.5427C28.7364 24.5427 30.0784 26.1021 30.0784 28.0259Z" stroke="white" stroke-miterlimit="10" stroke-linecap="round" stroke-linejoin="round"/>
<path d="M25.4182 2.59343C26.3849 4.09774 28.3367 4.62075 29.9261 3.80124C32.1708 2.64387 34.8604 4.19672 34.9805 6.71944C35.0655 8.50554 36.4943 9.93441 38.2804 10.0195C40.8032 10.1395 42.356 12.8291 41.1986 15.0738V15.0739C40.3792 16.6633 40.9022 18.615 42.4065 19.5817C44.5313 20.947 44.5313 24.0528 42.4065 25.4181C40.9022 26.3847 40.3792 28.3365 41.1986 29.9259V29.9259C42.356 32.1707 40.8032 34.8603 38.2804 34.9804C36.4943 35.0654 35.0655 36.4942 34.9805 38.2803C34.8604 40.803 32.1708 42.3559 29.9261 41.1985C28.3367 40.379 26.3849 40.902 25.4182 42.4063C24.0529 44.5311 20.9472 44.5311 19.5818 42.4063C18.6152 40.902 16.6634 40.379 15.074 41.1985C12.8293 42.3559 10.1397 40.803 10.0196 38.2803C9.93461 36.4942 8.50575 35.0654 6.71965 34.9804C4.19692 34.8603 2.64408 32.1707 3.80145 29.9259V29.9259C4.62087 28.3365 4.09786 26.3847 2.59355 25.4181C0.468816 24.0528 0.468816 20.947 2.59355 19.5817C4.09786 18.615 4.62087 16.6633 3.80145 15.0739V15.0738C2.64408 12.8291 4.19692 10.1395 6.71965 10.0195C8.50575 9.93441 9.93461 8.50554 10.0196 6.71944C10.1397 4.19672 12.8293 2.64387 15.074 3.80124C16.6634 4.62075 18.6152 4.09774 19.5818 2.59343C20.9472 0.468695 24.0529 0.468695 25.4182 2.59343Z" stroke="white" stroke-miterlimit="10" stroke-linecap="round" stroke-linejoin="round"/>
<path d="M10.8578 32.1019C8.70358 29.4929 7.40942 26.1475 7.40942 22.5C7.40942 14.1656 14.1657 7.40931 22.5 7.40931C26.1463 7.40931 29.4905 8.70251 32.099 10.8553" stroke="white" stroke-miterlimit="10" stroke-linecap="round" stroke-linejoin="round"/>
<path d="M34.2629 13.046C36.3446 15.6329 37.5906 18.9209 37.5906 22.4999C37.5906 30.8342 30.8343 37.5905 22.4999 37.5905C18.9134 37.5905 15.619 36.3393 13.0295 34.2495" stroke="white" stroke-miterlimit="10" stroke-linecap="round" stroke-linejoin="round"/>
</svg>
