<svg width="27" height="30" viewBox="0 0 27 30" fill="none" xmlns="http://www.w3.org/2000/svg">
<path fill-rule="evenodd" clip-rule="evenodd" d="M21.3218 15.0129C21.5832 15.0129 21.7944 15.2288 21.7944 15.4916V17.6223H23.2123V15.4916C23.2123 15.1496 23.5596 14.9193 23.8711 15.0525C24.4068 15.2766 24.8795 15.6294 25.2478 16.0799C25.6161 16.5305 25.8688 17.0651 25.9837 17.6367C26.1306 18.3913 26.0333 19.1734 25.706 19.8684C25.3787 20.5634 24.8386 21.1347 24.1648 21.4987V23.813H23.2159V21.1928C23.2159 21.002 23.3305 20.8293 23.5059 20.7537C23.9182 20.5803 24.2791 20.303 24.5537 19.9486C24.8283 19.5941 25.0073 19.1745 25.0736 18.7302C25.1398 18.286 25.091 17.832 24.9318 17.4122C24.7726 16.9925 24.5084 16.621 24.1648 16.3338V18.0974C24.1648 18.3638 23.9499 18.5761 23.6921 18.5761H21.3218C21.1964 18.5761 21.0762 18.5261 20.9876 18.437C20.8989 18.3479 20.8492 18.227 20.8492 18.101V16.3194C20.5019 16.6056 20.2343 16.9773 20.0724 17.3984C19.9106 17.8195 19.86 18.2755 19.9256 18.7221C19.9912 19.1686 20.1708 19.5905 20.4469 19.9465C20.7229 20.3026 21.086 20.5807 21.5008 20.7537C21.6798 20.8257 21.7908 21.002 21.7908 21.1928V23.3379H20.8456V21.5023C20.2495 21.1866 19.7552 20.7069 19.4205 20.1192C19.0857 19.5315 18.9242 18.8602 18.955 18.1837C18.9858 17.5072 19.2076 16.8535 19.5944 16.299C19.9811 15.7445 20.517 15.3121 21.1392 15.0525C21.1968 15.0271 21.2589 15.0136 21.3218 15.0129ZM20.1151 11.626L19.2415 11.9967C19.3095 12.1587 19.3382 12.3386 19.3167 12.5186L19.2379 13.2312C19.1949 13.6164 19.066 13.8863 18.8082 14.0411L18.5827 14.1742C18.2345 14.381 17.9563 14.6883 17.7842 15.0561L16.5024 17.8167C16.2464 18.3612 15.8413 18.821 15.3346 19.1423C14.8279 19.4636 14.2406 19.633 13.6415 19.6307H13.355C12.7566 19.6323 12.17 19.4626 11.664 19.1413C11.158 18.8201 10.7535 18.3606 10.4978 17.8167L9.20875 15.0561C9.03756 14.6888 8.76065 14.3816 8.41387 14.1742L8.18829 14.0411C7.93049 13.8863 7.80159 13.6164 7.75863 13.2312L7.67985 12.5186C7.66019 12.3402 7.68479 12.1596 7.75147 11.9931L6.88139 11.6296C6.75017 11.9443 6.70088 12.2874 6.73817 12.6266L6.81694 13.3356C6.83635 13.642 6.92675 13.9395 7.08093 14.2045C7.23512 14.4695 7.4488 14.6945 7.70492 14.8617L7.93049 14.9949C8.11668 15.1029 8.2599 15.2684 8.353 15.4628L9.63842 18.2198C10.308 19.6595 11.7581 20.5845 13.3515 20.5845H13.6379C15.2313 20.5845 16.6814 19.6631 17.3545 18.2198L18.6399 15.4628C18.7312 15.268 18.8784 15.105 19.0625 14.9949L19.288 14.8617C19.5441 14.6945 19.7578 14.4695 19.912 14.2045C20.0662 13.9395 20.1566 13.642 20.176 13.3356L20.2548 12.6266C20.2928 12.2862 20.2471 11.9417 20.1151 11.626Z" fill="white"/>
<path fill-rule="evenodd" clip-rule="evenodd" d="M10.2148 20.0053C10.0978 20.0066 9.98545 20.0515 9.89946 20.1313C9.81348 20.2111 9.75999 20.3201 9.74936 20.4373L9.68133 21.1571C9.66591 21.393 9.59072 21.621 9.46292 21.8194C9.39894 21.9112 9.31647 21.9884 9.22085 22.0461C9.12524 22.1038 9.01862 22.1406 8.90793 22.1541L5.05883 22.8704L4.03479 23.0467C3.42462 23.1368 2.85149 23.3961 2.37968 23.7953C1.90788 24.1945 1.55606 24.718 1.36369 25.307L0.024563 29.3742C0.000721711 29.4456 -0.0058886 29.5217 0.0052773 29.5962C0.0164432 29.6706 0.0450654 29.7414 0.0887826 29.8026C0.1325 29.8637 0.190059 29.9136 0.256713 29.948C0.323366 29.9824 0.397203 30.0004 0.472133 30.0005H26.5279C26.6028 30.0004 26.6766 29.9824 26.7433 29.948C26.8099 29.9136 26.8675 29.8637 26.9112 29.8026C26.9549 29.7414 26.9836 29.6706 26.9947 29.5962C27.0059 29.5217 26.9993 29.4456 26.9754 29.3742L25.6506 25.3394C25.4548 24.7407 25.0943 24.2099 24.6108 23.8086C24.1273 23.4073 23.5406 23.1519 22.9187 23.0719L21.8946 22.8919L18.0885 22.2153C17.7841 22.1613 17.6409 21.9921 17.4798 21.6034L17.4691 21.5854C17.4066 21.4489 17.3667 21.303 17.3509 21.1535L17.2793 20.4337C17.2729 20.3715 17.2545 20.3112 17.2249 20.2562C17.1954 20.2013 17.1554 20.1527 17.1072 20.1132C17.059 20.0738 17.0035 20.0443 16.944 20.0264C16.8844 20.0085 16.8219 20.0026 16.7601 20.0089C16.6983 20.0153 16.6383 20.0339 16.5836 20.0636C16.5289 20.0933 16.4806 20.1335 16.4413 20.1819C16.4021 20.2304 16.3727 20.2861 16.3549 20.346C16.3371 20.4059 16.3312 20.4687 16.3376 20.5308L16.4092 21.2471C16.4307 21.5098 16.5059 21.751 16.6026 21.9669C16.8281 22.514 17.2578 23.0359 17.9202 23.1547L21.7263 23.8278L22.7719 24.0077C22.779 24.0079 22.7862 24.0079 22.7933 24.0077C23.2385 24.0654 23.6581 24.2489 24.0036 24.5369C24.349 24.8249 24.6061 25.2055 24.7447 25.6346L25.8655 29.0431H1.12379L2.25525 25.6022C2.39212 25.1799 2.64368 24.8045 2.98153 24.5183C3.31938 24.2321 3.73007 24.0465 4.16727 23.9825H4.17443L5.22354 23.8026L9.07264 23.0827C9.53137 23.0017 9.94158 22.7466 10.2184 22.3701C10.4691 22.0245 10.5801 21.6286 10.6159 21.2435L10.6875 20.5236C10.6946 20.4565 10.6874 20.3887 10.6664 20.3246C10.6455 20.2605 10.6111 20.2016 10.5657 20.1519C10.5203 20.1022 10.4649 20.0627 10.4032 20.0362C10.3414 20.0097 10.2748 19.9967 10.2077 19.9981L10.2148 20.0053Z" fill="white"/>
<path fill-rule="evenodd" clip-rule="evenodd" d="M17.3115 21.9736L16.5775 22.3983C14.4041 23.6581 12.2378 23.5501 10.1683 22.114L9.98923 21.9916L9.45215 22.7763L9.63118 22.8986C11.9478 24.5111 14.6082 24.6407 17.0537 23.2226L17.7877 22.7943L17.3115 21.9736Z" fill="white"/>
<path fill-rule="evenodd" clip-rule="evenodd" d="M7.59038 22.8589V26.1918H19.442V22.8589H18.4968V25.2416H8.53565V22.8589H7.59038ZM5.22363 23.334V29.5247H6.1689V23.334H5.22363ZM20.8635 23.334V29.5247H21.8088V23.334H20.8635ZM13.5055 0.00359927C11.6543 0.00359927 9.79959 0.471502 8.13105 1.40731L7.85176 1.56208C7.47307 1.77461 7.15421 2.08024 6.92502 2.45037C6.69582 2.82051 6.56379 3.24304 6.54128 3.67844L6.16174 10.9345C6.15499 11.0903 6.17959 11.2459 6.23405 11.3919C6.28851 11.5379 6.37172 11.6713 6.4787 11.7842C6.58568 11.8971 6.71422 11.9872 6.85664 12.049C6.99905 12.1108 7.1524 12.1431 7.30752 12.1439C7.683 12.1436 8.05536 12.0753 8.40675 11.9423L9.10138 11.6796C11.9238 10.6129 15.0449 10.6696 17.8272 11.8379L18.3356 12.0539L18.2855 12.0287C18.6156 12.2164 18.9795 12.3363 19.3561 12.3814H19.4098C19.6022 12.3802 19.7924 12.3399 19.969 12.2631C20.1456 12.1863 20.305 12.0746 20.4377 11.9345C20.5703 11.7944 20.6736 11.6289 20.7412 11.4478C20.8088 11.2667 20.8395 11.0738 20.8313 10.8805L20.4661 3.67484C20.4443 3.23971 20.3129 2.81728 20.0843 2.44712C19.8557 2.07696 19.5374 1.77119 19.1592 1.55848L18.8799 1.40371C17.2367 0.483116 15.3867 -7.37514e-05 13.5055 8.44342e-09V0.00359927ZM13.5055 0.957401C15.1991 0.957401 16.8927 1.38571 18.4216 2.23874L18.6973 2.3935C18.9355 2.52723 19.136 2.71958 19.2801 2.95251C19.4241 3.18544 19.5069 3.45132 19.5208 3.72523L19.8896 10.9309C19.9039 11.2045 19.6927 11.4096 19.4241 11.4204C19.1895 11.3888 18.9626 11.3143 18.7546 11.2009L18.7295 11.1865L18.1924 10.9597C15.1877 9.69715 11.8169 9.63535 8.76839 10.787L8.07376 11.0497C7.82904 11.1436 7.56947 11.1924 7.30752 11.1937C7.2798 11.1954 7.25202 11.1911 7.22617 11.1809C7.20031 11.1707 7.177 11.1549 7.15787 11.1346C7.13875 11.1144 7.12428 11.0901 7.11549 11.0637C7.1067 11.0372 7.10381 11.0091 7.10701 10.9813L7.48655 3.72523C7.50079 3.45097 7.58417 3.18485 7.72885 2.95189C7.87354 2.71893 8.07478 2.52678 8.31366 2.3935L8.58936 2.23874C10.1183 1.38571 11.8119 0.957401 13.5055 0.957401Z" fill="white"/>
<path fill-rule="evenodd" clip-rule="evenodd" d="M13.491 6.19845C11.8794 6.16894 10.2765 6.44237 8.76471 7.00468L8.13453 7.23863C7.86874 7.33813 7.58746 7.38932 7.30384 7.3898H6.63428V8.34H7.30384C7.6977 8.34 8.09156 8.27162 8.46394 8.13125L9.09412 7.89729C11.9204 6.84589 15.0368 6.90243 17.8235 8.05566L18.4752 8.32201C18.8762 8.48757 19.3095 8.57395 19.7463 8.57395H20.3621V7.62375H19.7463C19.4332 7.62405 19.123 7.56292 18.8332 7.44379L18.1816 7.17384C16.6921 6.55797 15.1013 6.22716 13.491 6.19845Z" fill="white"/>
</svg>
