<svg width="32" height="30" viewBox="0 0 32 30" fill="none" xmlns="http://www.w3.org/2000/svg">
<path d="M16.0014 12.4949H15.9985C15.0981 12.4941 14.2329 12.8449 13.5874 13.4725C12.9418 14.1002 12.5667 14.9551 12.5422 15.8552V15.8812C12.5719 17.3026 12.9406 18.5431 13.6083 19.4687C14.2472 20.3542 15.1294 20.8738 16.0287 20.8943C16.0475 20.8947 16.0666 20.895 16.0854 20.895C16.9455 20.895 17.7417 20.4472 18.3336 19.6293C18.9732 18.7451 19.3511 17.4918 19.457 15.9043C19.4581 15.888 19.4583 15.8717 19.4578 15.8554C19.4333 14.9553 19.0583 14.1003 18.4127 13.4726C17.7671 12.8449 16.9018 12.4941 16.0014 12.4949ZM16.0514 19.8943C14.8608 19.8672 13.5984 18.3563 13.5421 15.8737C13.5631 15.2368 13.8305 14.633 14.2879 14.1894C14.7454 13.7458 15.3571 13.4971 15.9943 13.4957C16.6315 13.4942 17.2444 13.7402 17.7038 14.1817C18.1633 14.6233 18.4334 15.2259 18.4572 15.8627C18.2504 18.8738 17.0318 19.9148 16.0514 19.8943H16.0514ZM31.3112 24.4529C31.2486 24.3564 31.1547 24.2844 31.0453 24.249C30.1053 23.9339 29.2075 23.5047 28.3719 22.9712C28.315 22.9356 28.2515 22.9118 28.1852 22.9013C28.1189 22.8908 28.0511 22.8938 27.986 22.91C27.9208 22.9262 27.8596 22.9554 27.806 22.9958C27.7524 23.0362 27.7074 23.087 27.6739 23.1451L26.761 24.7264L25.848 23.1451C25.8145 23.087 25.7695 23.0362 25.7159 22.9958C25.6623 22.9554 25.6011 22.9262 25.5359 22.91C25.4708 22.8938 25.403 22.8908 25.3367 22.9013C25.2704 22.9118 25.2069 22.9356 25.15 22.9712C24.3849 23.4574 23.5689 23.8583 22.7165 24.1667C22.5648 23.714 22.3567 23.2822 22.0973 22.8814C22.0347 22.7849 21.9408 22.7129 21.8314 22.6776C20.628 22.2888 19.3776 21.6912 18.115 20.9017C18.058 20.8661 17.9945 20.8423 17.9282 20.8318C17.8619 20.8213 17.7941 20.8242 17.729 20.8405C17.6638 20.8567 17.6026 20.8859 17.549 20.9263C17.4954 20.9667 17.4505 21.0175 17.4169 21.0757L15.9999 23.53L14.5829 21.0757C14.5493 21.0175 14.5043 20.9667 14.4507 20.9263C14.3971 20.8859 14.3359 20.8567 14.2708 20.8405C14.2056 20.8242 14.1379 20.8213 14.0715 20.8318C14.0052 20.8423 13.9417 20.8661 13.8848 20.9017C12.6223 21.6912 11.3719 22.2887 10.1684 22.6776C10.059 22.7129 9.96507 22.7849 9.90253 22.8814C9.64306 23.2822 9.43501 23.714 9.28327 24.1667C8.43087 23.8583 7.61484 23.4574 6.84979 22.9712C6.79286 22.9356 6.72935 22.9118 6.66304 22.9013C6.59673 22.8908 6.52898 22.8938 6.46384 22.91C6.39869 22.9262 6.33748 22.9554 6.28385 22.9958C6.23023 23.0362 6.18529 23.087 6.15172 23.1451L5.23877 24.7264L4.32588 23.1451C4.29231 23.087 4.24737 23.0362 4.19374 22.9958C4.14012 22.9554 4.07891 22.9262 4.01376 22.91C3.94862 22.8938 3.88087 22.8908 3.81456 22.9013C3.74825 22.9118 3.68473 22.9356 3.62781 22.9712C2.79222 23.5047 1.89441 23.9339 0.954451 24.249C0.845015 24.2844 0.751114 24.3564 0.688572 24.4529C0.359831 24.9607 0.142232 25.5323 0.0500683 26.1301C-0.0420958 26.7279 -0.00673987 27.3385 0.153814 27.9217C0.172334 27.9889 0.2047 28.0514 0.248831 28.1054C0.292963 28.1593 0.347884 28.2034 0.410068 28.2348C1.96709 29.024 3.60306 29.4187 5.23908 29.4187C6.87511 29.4187 8.51113 29.024 10.0682 28.2348C10.1083 28.2143 10.1455 28.1884 10.1787 28.158C12.0072 28.9882 13.992 29.4177 16.0002 29.4177C18.0083 29.4177 19.9931 28.9882 21.8216 28.158C21.8548 28.1885 21.892 28.2144 21.9322 28.2348C23.4894 29.0242 25.125 29.4189 26.7613 29.4188C28.3976 29.4187 30.0335 29.024 31.5904 28.2348C31.6525 28.2034 31.7074 28.1593 31.7514 28.1054C31.7955 28.0515 31.8278 27.9889 31.8463 27.9218C32.0068 27.3385 32.0421 26.7279 31.9499 26.1301C31.8577 25.5323 31.6399 24.9607 31.3112 24.4529ZM1.06695 27.4442C0.905466 26.6569 1.03791 25.8377 1.43927 25.1414C2.23026 24.8646 2.99235 24.5112 3.71468 24.0863L4.80601 25.9763C4.8499 26.0523 4.91302 26.1154 4.98903 26.1593C5.06503 26.2032 5.15125 26.2263 5.23902 26.2263C5.32678 26.2263 5.413 26.2032 5.48901 26.1593C5.56502 26.1154 5.62814 26.0523 5.67202 25.9763L6.76317 24.0865C7.48856 24.5128 8.25406 24.867 9.04864 25.1438C8.93141 25.9299 8.97988 26.7319 9.19095 27.4982C9.19483 27.5123 9.19964 27.5259 9.20464 27.5395C6.56229 28.7382 3.69731 28.707 1.06695 27.4442ZM10.1015 27.0202C9.83571 25.8427 10.0324 24.608 10.6509 23.5713C11.8092 23.1709 12.9225 22.6506 13.9727 22.0189L15.5669 24.78C15.6108 24.856 15.6739 24.9191 15.7499 24.963C15.826 25.0069 15.9122 25.03 15.9999 25.03C16.0877 25.03 16.1739 25.0069 16.2499 24.963C16.3259 24.9191 16.3891 24.856 16.4329 24.78L18.0271 22.0189C19.0773 22.6506 20.1906 23.1709 21.349 23.5713C21.9675 24.608 22.1641 25.8427 21.8983 27.0202C18.0858 28.88 13.914 28.8801 10.1015 27.0202ZM30.9331 27.4442C28.3025 28.7071 25.4377 28.738 22.7955 27.5394C22.8005 27.5259 22.8053 27.5123 22.8092 27.4982C23.0202 26.7319 23.0687 25.9299 22.9515 25.1438C23.7461 24.867 24.5116 24.5128 25.237 24.0865L26.3282 25.9763C26.372 26.0523 26.4352 26.1154 26.5112 26.1593C26.5872 26.2032 26.6734 26.2263 26.7612 26.2263C26.8489 26.2263 26.9352 26.2032 27.0112 26.1593C27.0872 26.1154 27.1503 26.0523 27.1942 25.9763L28.2853 24.0865C29.0076 24.5113 29.7697 24.8646 30.5606 25.1414C30.962 25.8377 31.0944 26.6569 30.933 27.4442H30.9331ZM26.7626 16.8345H26.7597C26.0693 16.8339 25.406 17.103 24.911 17.5842C24.416 18.0655 24.1285 18.721 24.1096 19.4111V19.4371C24.1319 20.499 24.4089 21.428 24.911 22.1238C25.401 22.8028 26.082 23.2015 26.7793 23.2175C26.7931 23.2175 26.8067 23.218 26.8206 23.218C27.9103 23.218 29.2269 22.2381 29.4123 19.46C29.4134 19.4438 29.4136 19.4275 29.4132 19.4112C29.3944 18.721 29.1068 18.0654 28.6117 17.5841C28.1166 17.1028 27.4531 16.8338 26.7626 16.8345ZM26.8017 22.2176C26.0003 22.1993 25.1498 21.1519 25.1094 19.4297C25.1244 19.0026 25.3042 18.5978 25.6112 18.3005C25.9181 18.0031 26.3284 17.8362 26.7558 17.8348C27.1832 17.8334 27.5945 17.9976 27.9034 18.293C28.2123 18.5884 28.3948 18.9919 28.4125 19.419C28.2759 21.3743 27.5064 22.2334 26.8016 22.2176H26.8017ZM5.24033 16.8345H5.23727C4.54689 16.8339 3.88359 17.103 3.38861 17.5842C2.89363 18.0655 2.60609 18.721 2.58723 19.4111V19.4371C2.60948 20.499 2.88661 21.428 3.38861 22.1238C3.87862 22.8028 4.55957 23.2015 5.25689 23.2175C5.27071 23.2175 5.28439 23.218 5.29821 23.218C6.38791 23.218 7.70449 22.2381 7.88993 19.46C7.89106 19.4438 7.89131 19.4275 7.89081 19.4112C7.87198 18.721 7.58439 18.0654 7.08932 17.5841C6.59424 17.1028 5.9308 16.8338 5.24033 16.8345ZM5.29883 22.2178H5.27946C4.47794 22.1995 3.62749 21.152 3.58705 19.4299C3.60202 19.0028 3.78186 18.598 4.08883 18.3007C4.39581 18.0033 4.80605 17.8364 5.23344 17.835C5.66083 17.8336 6.07215 17.9978 6.38105 18.2932C6.68995 18.5886 6.87243 18.9921 6.89017 19.4191C6.75492 21.3564 5.99834 22.2178 5.29883 22.2178ZM22.0688 4.40935C22.0409 4.32345 21.9902 4.24671 21.9222 4.18728C21.8542 4.12785 21.7713 4.08796 21.6825 4.07184L18.144 3.43015L16.4403 0.263097C16.3975 0.183565 16.3339 0.117109 16.2564 0.0707847C16.1789 0.0244609 16.0902 0 15.9999 0C15.9096 0 15.821 0.0244609 15.7435 0.0707847C15.6659 0.117109 15.6024 0.183565 15.5596 0.263097L13.8562 3.43015L10.3173 4.07191C10.2284 4.08804 10.1456 4.12793 10.0776 4.18735C10.0096 4.24678 9.95896 4.3235 9.93106 4.40939C9.90316 4.49528 9.89904 4.58712 9.91914 4.67516C9.93924 4.7632 9.98281 4.84415 10.0452 4.90942L12.5308 7.50846L12.0476 11.0725C12.0354 11.162 12.0478 11.2531 12.0833 11.3361C12.1187 11.4192 12.1761 11.4911 12.2492 11.5442C12.3222 11.5973 12.4083 11.6296 12.4983 11.6376C12.5882 11.6457 12.6787 11.6293 12.7601 11.5901L15.9999 10.0287L19.2399 11.5895C19.3213 11.6287 19.4118 11.6452 19.5017 11.6371C19.5917 11.629 19.6778 11.5967 19.7508 11.5436C19.8239 11.4905 19.8813 11.4186 19.9167 11.3356C19.9522 11.2525 19.9646 11.1614 19.9524 11.0719L19.4692 7.50821L21.9547 4.90917C22.0171 4.84391 22.0606 4.76299 22.0807 4.67499C22.1008 4.58699 22.0967 4.4952 22.0688 4.40935ZM18.5799 6.99114C18.528 7.04541 18.489 7.11068 18.4658 7.18209C18.4426 7.2535 18.4357 7.32923 18.4458 7.40365L18.8365 10.2849L16.2169 9.02298C16.1492 8.99037 16.0751 8.97344 15.9999 8.97344C15.9248 8.97344 15.8506 8.99037 15.7829 9.02298L13.1634 10.2849L13.5541 7.40365C13.5641 7.32923 13.5573 7.2535 13.5341 7.18209C13.5109 7.11068 13.4719 7.04541 13.42 6.99114L11.4102 4.88998L14.2713 4.37122C14.3453 4.35781 14.4152 4.3279 14.476 4.28373C14.5368 4.23956 14.5868 4.18226 14.6224 4.1161L15.9999 1.55537L17.3775 4.1161C17.4131 4.18225 17.4631 4.23954 17.5239 4.2837C17.5847 4.32786 17.6546 4.35775 17.7285 4.37116L20.5896 4.88992L18.5799 6.99114ZM31.1114 11.4212C31.0835 11.3353 31.0328 11.2586 30.9648 11.1992C30.8968 11.1397 30.814 11.0998 30.7251 11.0837L28.3468 10.6524L27.2014 8.52404C27.1586 8.44451 27.095 8.37805 27.0175 8.33173C26.94 8.2854 26.8514 8.26094 26.761 8.26094C26.6707 8.26094 26.5821 8.2854 26.5046 8.33173C26.427 8.37805 26.3635 8.44451 26.3207 8.52404L25.1756 10.6528L22.7972 11.084C22.7083 11.1001 22.6255 11.14 22.5575 11.1994C22.4895 11.2589 22.4388 11.3356 22.4109 11.4215C22.383 11.5074 22.3789 11.5992 22.399 11.6873C22.4191 11.7753 22.4626 11.8563 22.525 11.9215L24.1957 13.6684L23.8707 16.0637C23.8585 16.1532 23.8709 16.2443 23.9064 16.3273C23.9419 16.4104 23.9992 16.4823 24.0723 16.5354C24.1453 16.5885 24.2314 16.6208 24.3214 16.6288C24.4114 16.6369 24.5018 16.6205 24.5832 16.5813L26.7609 15.5323L28.9385 16.5813C29.0199 16.6205 29.1104 16.6369 29.2003 16.6288C29.2903 16.6208 29.3764 16.5885 29.4494 16.5354C29.5225 16.4823 29.5798 16.4104 29.6153 16.3273C29.6508 16.2443 29.6632 16.1532 29.651 16.0637L29.326 13.6684L30.9965 11.9215C31.059 11.8563 31.1027 11.7754 31.1229 11.6873C31.143 11.5993 31.139 11.5074 31.1111 11.4215L31.1114 11.4212ZM28.4374 13.1512C28.3855 13.2054 28.3465 13.2707 28.3233 13.3421C28.3001 13.4135 28.2933 13.4893 28.3033 13.5637L28.5356 15.2766L26.9782 14.5266C26.9105 14.494 26.8364 14.477 26.7613 14.477C26.6861 14.477 26.612 14.494 26.5443 14.5266L24.987 15.2766L25.2193 13.5637C25.2293 13.4893 25.2225 13.4135 25.1992 13.3421C25.176 13.2707 25.137 13.2054 25.0851 13.1512L23.8904 11.9018L25.5913 11.5935C25.6652 11.5801 25.7352 11.5502 25.7959 11.506C25.8567 11.4619 25.9068 11.4046 25.9423 11.3384L26.7611 9.81612L27.5799 11.3384C27.6155 11.4046 27.6655 11.4619 27.7263 11.506C27.7871 11.5502 27.8571 11.5801 27.931 11.5935L29.6318 11.9018L28.4374 13.1512ZM9.58896 11.4215C9.56106 11.3356 9.5104 11.2588 9.44238 11.1994C9.37436 11.14 9.29152 11.1001 9.20264 11.084L6.82429 10.6527L5.67915 8.52404C5.63636 8.44451 5.57282 8.37805 5.4953 8.33173C5.41777 8.2854 5.32914 8.26094 5.23883 8.26094C5.14852 8.26094 5.05989 8.2854 4.98236 8.33173C4.90484 8.37805 4.8413 8.44451 4.79851 8.52404L3.65337 10.6528L1.27496 11.084C1.1861 11.1001 1.10328 11.14 1.03528 11.1995C0.967276 11.2589 0.916636 11.3356 0.888736 11.4215C0.860835 11.5074 0.856716 11.5992 0.876815 11.6873C0.896914 11.7753 0.940481 11.8563 1.00289 11.9215L2.67348 13.6684L2.34847 16.0637C2.33634 16.1532 2.34867 16.2443 2.38417 16.3273C2.41966 16.4104 2.47699 16.4823 2.55006 16.5354C2.62314 16.5885 2.70923 16.6208 2.79919 16.6288C2.88915 16.6369 2.97961 16.6205 3.06098 16.5813L5.23864 15.5323L7.4163 16.5813C7.49767 16.6205 7.58814 16.6369 7.6781 16.6288C7.76806 16.6208 7.85415 16.5885 7.92722 16.5354C8.0003 16.4823 8.05763 16.4104 8.09312 16.3273C8.12862 16.2443 8.14095 16.1532 8.12881 16.0637L7.80381 13.6684L9.4744 11.9215C9.53688 11.8563 9.58053 11.7754 9.6007 11.6873C9.62087 11.5993 9.61682 11.5074 9.58896 11.4215ZM6.91504 13.1514C6.86314 13.2057 6.82412 13.271 6.80089 13.3424C6.77766 13.4138 6.77081 13.4895 6.78085 13.5639L7.01311 15.2768L5.45583 14.5268C5.38815 14.4942 5.31399 14.4773 5.23886 14.4773C5.16374 14.4773 5.08957 14.4942 5.02189 14.5268L3.46462 15.2768L3.69681 13.5639C3.70686 13.4895 3.70002 13.4138 3.6768 13.3424C3.65358 13.271 3.61458 13.2057 3.56268 13.1514L2.36797 11.9021L4.06881 11.5938C4.14274 11.5803 4.2127 11.5504 4.27348 11.5063C4.33427 11.4621 4.38433 11.4048 4.41994 11.3386L5.23871 9.81637L6.05747 11.3386C6.09306 11.4048 6.1431 11.4621 6.20388 11.5063C6.26466 11.5505 6.33461 11.5804 6.40854 11.5938L8.10938 11.9021L6.91504 13.1514Z" fill="white"/>
</svg>
