<svg width="30" height="30" viewBox="0 0 30 30" fill="none" xmlns="http://www.w3.org/2000/svg">
<path d="M27.0009 16.5006V15.5005C27.2769 15.5005 27.5009 15.2767 27.5009 15.0005V12.0004C27.5009 11.7243 27.2769 11.5004 27.0009 11.5004H24.3008L24.2039 11.1248C23.9829 10.2657 23.6393 9.44287 23.1837 8.6817L22.9837 8.34719L24.9008 6.42677C25.0938 6.23341 25.0938 5.9201 24.9008 5.72675L22.7773 3.60012C22.6829 3.51013 22.5576 3.45993 22.4272 3.45993C22.2968 3.45993 22.1714 3.51013 22.0771 3.60012L20.1565 5.52069L19.8221 5.32068C19.0599 4.86498 18.2361 4.52128 17.3759 4.30015L17.0005 4.20249V1.50005C17.0005 1.22389 16.7767 1.00003 16.5005 1.00003H13.5004C13.2243 1.00003 13.0004 1.22389 13.0004 1.50005V4.20014L12.6248 4.2972C11.7657 4.51819 10.9428 4.86149 10.1813 5.31658L9.84679 5.51679L7.92672 3.60012C7.83227 3.50943 7.7064 3.45879 7.57546 3.45879C7.44452 3.45879 7.31865 3.50943 7.2242 3.60012L5.10012 5.72365C5.05387 5.76977 5.01717 5.82457 4.99213 5.8849C4.96709 5.94523 4.9542 6.00991 4.9542 6.07523C4.9542 6.14056 4.96709 6.20524 4.99213 6.26557C5.01717 6.3259 5.05387 6.3807 5.10012 6.42682L7.02069 8.34714L6.82068 8.68175C6.36519 9.44293 6.02169 10.2657 5.80075 11.1248L5.70264 11.5004H3.00005C2.72389 11.5004 2.50003 11.7243 2.50003 12.0004V15.0005C2.50003 15.2767 2.72389 15.5005 3.00005 15.5005V16.5006C2.17172 16.5006 1.5 15.8288 1.5 15.0005V12.0004C1.5 11.1721 2.17172 10.5004 3.00005 10.5004H4.93467C5.14089 9.80901 5.41981 9.14145 5.76675 8.50889L4.3917 7.13384C4.11044 6.85319 3.95243 6.47232 3.95243 6.07521C3.95243 5.6781 4.11044 5.29723 4.3917 5.01677L6.51677 2.8917C7.10879 2.32508 8.04222 2.32508 8.63425 2.8917L10.0089 4.26615C10.6415 3.91958 11.3091 3.64102 12.0004 3.43512V1.50005C12.0004 0.671723 12.6721 0 13.5004 0H16.5005C17.3288 0 18.0006 0.671723 18.0006 1.50005V3.43512C18.6919 3.64122 19.3594 3.91999 19.992 4.26675L21.3671 2.8917C21.9593 2.32508 22.8925 2.32508 23.4848 2.8917L25.6094 5.01617C25.7486 5.15508 25.859 5.32006 25.9343 5.50168C26.0096 5.68331 26.0483 5.87799 26.0483 6.07461C26.0483 6.27126 26.0096 6.46598 25.9343 6.64764C25.859 6.82929 25.7486 6.99431 25.6094 7.13325L24.2344 8.50829C24.581 9.14118 24.8599 9.80891 25.0663 10.5004H27.0009C27.8292 10.5004 28.5009 11.1721 28.5009 12.0004V15.0005C28.5009 15.8288 27.8292 16.5006 27.0009 16.5006Z" fill="white"/>
<path d="M22.0007 13.5002H21.0007C21.0007 10.1865 18.3142 7.50003 15.0005 7.50003C11.6867 7.50003 9.00028 10.1865 9.00028 13.5002H8.00024C8.00024 9.63411 11.1344 6.5 15.0005 6.5C18.8664 6.5 22.0007 9.63411 22.0007 13.5002Z" fill="white"/>
<path d="M15.0006 17.5007C13.3437 17.5007 12.0005 16.1573 12.0005 14.5006C12.0005 12.8437 13.3437 11.5005 15.0006 11.5005C16.6577 11.5005 18.0007 12.8437 18.0007 14.5006C17.999 16.1569 16.6569 17.4989 15.0006 17.5007ZM15.0006 12.5005C13.8961 12.5005 13.0006 13.3961 13.0006 14.5006C13.0006 15.6051 13.8961 16.5007 15.0006 16.5007C16.1052 16.5007 17.0007 15.6051 17.0007 14.5006C17.0007 13.3961 16.1052 12.5005 15.0006 12.5005ZM23.5009 19.5008C21.844 19.5008 20.5008 18.1574 20.5008 16.5007C20.5008 14.8438 21.844 13.5006 23.5009 13.5006C25.1578 13.5006 26.501 14.8438 26.501 16.5007C26.4993 18.157 25.1572 19.499 23.5009 19.5008ZM23.5009 14.5006C22.3964 14.5006 21.5009 15.3961 21.5009 16.5007C21.5009 17.6052 22.3964 18.5007 23.5009 18.5007C24.6055 18.5007 25.501 17.6052 25.501 16.5007C25.501 15.3961 24.6055 14.5006 23.5009 14.5006ZM6.50035 19.5008C4.84344 19.5008 3.50024 18.1574 3.50024 16.5007C3.50024 14.8438 4.84344 13.5006 6.50035 13.5006C8.1574 13.5006 9.50045 14.8438 9.50045 16.5007C9.4987 18.157 8.15665 19.499 6.50035 19.5008ZM6.50035 14.5006C5.39581 14.5006 4.50028 15.3961 4.50028 16.5007C4.50028 17.6052 5.39581 18.5007 6.50035 18.5007C7.60489 18.5007 8.50042 17.6052 8.50042 16.5007C8.50042 15.3961 7.60489 14.5006 6.50035 14.5006Z" fill="white"/>
<path d="M28.0338 20.7834C27.2886 20.2712 26.4051 19.9981 25.5009 20.0006H21.5007C21.2575 20.0028 21.0148 20.0248 20.7751 20.0664C20.4551 19.566 20.0389 19.1341 19.5507 18.7958C19.4775 18.7405 19.4004 18.6905 19.3202 18.646C18.6207 18.2225 17.8183 17.9992 17.0006 18.0005H13.0004C12.2482 17.9979 11.5075 18.186 10.8477 18.5473C10.1878 18.9085 9.63035 19.4312 9.22732 20.0664C8.98716 20.0248 8.74402 20.0028 8.50029 20.0006H4.50015C3.59649 19.9981 2.7135 20.2708 1.96862 20.7825C1.36238 21.195 0.866129 21.7493 0.52303 22.3974C0.17993 23.0454 0.000379429 23.7675 0 24.5007V26.5008C0.00175006 27.8661 0.796127 29.106 2.03622 29.6779C2.49396 29.8935 2.99416 30.0039 3.50012 30.0009H8.50029V29.0009H4.00014V23.5007H3.0001V28.9507C2.81188 28.9129 2.62901 28.8522 2.45558 28.7698C2.02182 28.5698 1.6543 28.25 1.3964 27.8479C1.13849 27.4459 1.00096 26.9785 1.00003 26.5008V24.5007C1.00064 23.9301 1.14061 23.3682 1.40779 22.864C1.67497 22.3598 2.06126 21.9284 2.53309 21.6075C3.11198 21.2102 3.79807 20.9986 4.50015 21.0006H8.50029C8.5884 21.0006 8.6733 21.01 8.7593 21.0159C8.5901 21.4927 8.50254 21.9947 8.50029 22.5007V27.5008C8.50204 28.881 9.62043 29.9992 11.0004 30.0009H12.5004V22.0007H11.5004V29.0009H11.0004C10.172 29.0009 9.50033 28.3292 9.50033 27.5008V22.5007C9.50033 20.5674 11.0676 19.0006 13.0004 19.0006H17.0006C17.6439 19.001 18.2746 19.179 18.8231 19.5151C18.8739 19.5428 18.9226 19.5739 18.969 19.6084C19.4375 19.9292 19.822 20.3579 20.0901 20.8584C20.3596 21.3639 20.5006 21.9279 20.5007 22.5007V27.5008C20.5007 28.3292 19.829 29.0009 19.0007 29.0009H18.5006V22.0007H17.5006V30.0009H19.0007C20.3808 29.9992 21.499 28.881 21.5007 27.5008V22.5007C21.4984 21.9947 21.411 21.4928 21.2421 21.0159C21.3283 21.01 21.4132 21.0006 21.5007 21.0006H25.5009C26.2035 20.9987 26.8901 21.2107 27.4693 21.6084C27.9407 21.9295 28.3266 22.3608 28.5935 22.8648C28.8605 23.3688 29.0003 23.9304 29.001 24.5007V26.5008C29.0001 26.98 28.8617 27.449 28.6022 27.8519C28.3427 28.2548 27.9731 28.5747 27.5371 28.7737C27.3663 28.8545 27.1862 28.914 27.0009 28.9507V23.5007H26.0009V29.0009H21.5007V30.0009H26.5009C27.0038 30.0041 27.501 29.8951 27.9565 29.6818C29.2006 29.1116 29.999 27.8694 30.001 26.5008V24.5007C30.0007 23.7678 29.8212 23.046 29.4784 22.3981C29.1355 21.7503 28.6396 21.196 28.0338 20.7834Z" fill="white"/>
<path d="M13.0005 29.001H17.0006V30.001H13.0005V29.001Z" fill="white"/>
</svg>
