<svg width="115" height="45" viewBox="0 0 115 45" fill="none" xmlns="http://www.w3.org/2000/svg">
<path d="M16.1317 31.3239L15.6691 35.2633H20.1015L19.7573 37.9717H15.3464L14.8622 42.0119H20.704L20.3597 44.8209H11L12.9365 28.5148H22.2747L21.9305 31.3239H16.1317Z" fill="white"/>
<path d="M24.3007 44.8209L26.2587 28.0671H29.5507L27.5927 44.8209H24.3007Z" fill="white"/>
<path d="M36.5754 33.2153L35.2414 44.8209H31.9493L33.2833 33.2153H36.5754ZM37.1994 30.0369C37.1994 30.3129 37.142 30.5741 37.0272 30.8203C36.9125 31.059 36.7619 31.2717 36.5754 31.4582C36.3889 31.6373 36.1738 31.7828 35.9299 31.8947C35.6932 31.9991 35.4494 32.0514 35.1983 32.0514C34.9473 32.0514 34.707 31.9991 34.4775 31.8947C34.248 31.7828 34.0436 31.6373 33.8643 31.4582C33.6922 31.2717 33.5523 31.059 33.4447 30.8203C33.3371 30.5741 33.2833 30.3129 33.2833 30.0369C33.2833 29.7608 33.3371 29.4997 33.4447 29.2535C33.5523 29.0072 33.6958 28.7909 33.8751 28.6043C34.0615 28.4178 34.2695 28.2723 34.499 28.1679C34.7286 28.056 34.9688 28 35.2198 28C35.478 28 35.7255 28.0522 35.9622 28.1567C36.1989 28.2611 36.4069 28.4066 36.5862 28.5932C36.7726 28.7797 36.9197 28.996 37.0272 29.2423C37.142 29.4885 37.1994 29.7533 37.1994 30.0369Z" fill="white"/>
<path d="M40.573 42.314C40.573 42.2618 40.573 42.1984 40.573 42.1238C40.573 42.0492 40.5765 41.9447 40.5837 41.8104C40.5981 41.6686 40.616 41.4858 40.6375 41.262C40.6662 41.0307 40.7021 40.7285 40.7451 40.3555L41.3153 35.6103H40.4223C40.2717 35.6103 40.1462 35.5543 40.0458 35.4424C39.9454 35.323 39.9131 35.1514 39.949 34.9276L40.0996 33.5734L41.7886 33.2153L42.7246 30.3838C42.8465 30.0257 43.0904 29.8466 43.4562 29.8466H45.2636L44.8548 33.2377H47.3507L47.071 35.6103H44.5751L44.0371 40.1652C44.0013 40.4711 43.9726 40.7136 43.9511 40.8927C43.9296 41.0643 43.9116 41.1986 43.8973 41.2956C43.8901 41.3851 43.8865 41.4485 43.8865 41.4858C43.8865 41.5157 43.8865 41.5343 43.8865 41.5418C43.8865 41.7582 43.9331 41.941 44.0264 42.0902C44.1268 42.232 44.281 42.3028 44.489 42.3028C44.6037 42.3028 44.697 42.2916 44.7687 42.2693C44.8476 42.2394 44.9157 42.2096 44.9731 42.1797C45.0305 42.1424 45.0843 42.1126 45.1345 42.0902C45.1847 42.0603 45.2421 42.0454 45.3066 42.0454C45.407 42.0454 45.4788 42.0715 45.5218 42.1238C45.572 42.1685 45.6222 42.2431 45.6724 42.3476L46.404 43.9928C45.9593 44.3285 45.4823 44.5822 44.9731 44.7538C44.4639 44.9179 43.9511 45 43.4347 45C43.0043 45 42.617 44.9403 42.2728 44.8209C41.9285 44.6941 41.6309 44.515 41.3798 44.2837C41.136 44.045 40.9423 43.7615 40.7989 43.4332C40.6626 43.1049 40.5873 42.7318 40.573 42.314Z" fill="white"/>
<path d="M55.5213 35.3976C54.9691 35.3976 54.4849 35.6289 54.0689 36.0915C53.653 36.5466 53.3445 37.1734 53.1437 37.9717C53.8323 37.8598 54.3917 37.7404 54.822 37.6136C55.2524 37.4867 55.5859 37.3524 55.8225 37.2107C56.0592 37.0614 56.217 36.9048 56.2959 36.7406C56.382 36.5765 56.425 36.3974 56.425 36.2034C56.425 36.0094 56.3533 35.8266 56.2098 35.655C56.0664 35.4834 55.8369 35.3976 55.5213 35.3976ZM59.2007 42.6722C58.8062 43.075 58.4189 43.4257 58.0388 43.7242C57.6658 44.0151 57.2785 44.2576 56.8769 44.4516C56.4824 44.6381 56.0592 44.7762 55.6074 44.8657C55.1627 44.9552 54.675 45 54.1442 45C53.4844 45 52.8783 44.8844 52.3261 44.6531C51.7738 44.4143 51.2969 44.0823 50.8952 43.657C50.5008 43.2243 50.1924 42.7057 49.97 42.1014C49.7548 41.497 49.6473 40.8255 49.6473 40.0869C49.6473 39.4676 49.7118 38.8633 49.8409 38.2739C49.9772 37.6844 50.1673 37.1323 50.4111 36.6175C50.6621 36.0952 50.967 35.6177 51.3256 35.185C51.6842 34.7448 52.0858 34.368 52.5305 34.0546C52.9823 33.7413 53.4736 33.4988 54.0044 33.3272C54.5423 33.1481 55.1125 33.0586 55.715 33.0586C56.3103 33.0586 56.8374 33.1481 57.2964 33.3272C57.7626 33.5063 58.1535 33.7413 58.4691 34.0323C58.7847 34.3158 59.0249 34.6366 59.1899 34.9947C59.3549 35.3529 59.4373 35.711 59.4373 36.0691C59.4373 36.5989 59.3369 37.0838 59.1361 37.524C58.9353 37.9568 58.5838 38.3447 58.0818 38.688C57.5869 39.0312 56.9163 39.3221 56.07 39.5609C55.2308 39.7996 54.1729 39.9862 52.8963 40.1205C52.9106 40.9113 53.0756 41.4896 53.3912 41.8552C53.7139 42.2208 54.1873 42.4036 54.8113 42.4036C55.1053 42.4036 55.3599 42.3774 55.5751 42.3252C55.7903 42.273 55.9767 42.2058 56.1345 42.1238C56.2995 42.0417 56.4465 41.9559 56.5756 41.8664C56.7047 41.7768 56.8267 41.691 56.9414 41.609C57.0633 41.5269 57.1889 41.4597 57.318 41.4075C57.4471 41.3553 57.5941 41.3292 57.759 41.3292C57.8666 41.3292 57.9706 41.359 58.071 41.4187C58.1714 41.4709 58.2611 41.5418 58.34 41.6313L59.2007 42.6722Z" fill="white"/>
<path d="M72.637 31.4022H68.6564L67.0642 44.8209H63.5785L65.1492 31.4022H61.1471L61.4913 28.5148H73.0027L72.637 31.4022Z" fill="white"/>
<path d="M79.3692 33.2153L78.0351 44.8209H74.7431L76.0771 33.2153H79.3692ZM79.9931 30.0369C79.9931 30.3129 79.9358 30.5741 79.821 30.8203C79.7063 31.059 79.5556 31.2717 79.3692 31.4582C79.1827 31.6373 78.9675 31.7828 78.7237 31.8947C78.487 31.9991 78.2431 32.0514 77.9921 32.0514C77.7411 32.0514 77.5008 31.9991 77.2713 31.8947C77.0418 31.7828 76.8374 31.6373 76.6581 31.4582C76.4859 31.2717 76.3461 31.059 76.2385 30.8203C76.1309 30.5741 76.0771 30.3129 76.0771 30.0369C76.0771 29.7608 76.1309 29.4997 76.2385 29.2535C76.3461 29.0072 76.4895 28.7909 76.6688 28.6043C76.8553 28.4178 77.0633 28.2723 77.2928 28.1679C77.5223 28.056 77.7626 28 78.0136 28C78.2718 28 78.5192 28.0522 78.7559 28.1567C78.9926 28.2611 79.2006 28.4066 79.3799 28.5932C79.5664 28.7797 79.7134 28.996 79.821 29.2423C79.9358 29.4885 79.9931 29.7533 79.9931 30.0369Z" fill="white"/>
<path d="M86.5297 35.2186C87.0676 34.4725 87.6557 33.9241 88.294 33.5734C88.9324 33.2153 89.5922 33.0362 90.2736 33.0362C90.7326 33.0362 91.1522 33.1332 91.5323 33.3272C91.9196 33.5212 92.2387 33.8047 92.4898 34.1777C92.748 34.5508 92.9309 35.0134 93.0385 35.5655C93.146 36.1102 93.1568 36.7369 93.0707 37.4457L92.2316 44.8209H88.8965L89.7356 37.4457C89.7715 37.1323 89.7823 36.8675 89.7679 36.6511C89.7607 36.4347 89.7249 36.2631 89.6603 36.1363C89.5958 36.0094 89.5061 35.9199 89.3914 35.8677C89.2766 35.808 89.1403 35.7781 88.9826 35.7781C88.7387 35.7781 88.4841 35.8565 88.2187 36.0132C87.9533 36.1698 87.6987 36.3937 87.4549 36.6847C87.2182 36.9682 86.9994 37.3151 86.7986 37.7255C86.5978 38.1284 86.44 38.576 86.3253 39.0685L85.712 44.8209H82.3769L83.711 33.2153H85.4323C85.7766 33.2153 86.0455 33.3011 86.2392 33.4727C86.4328 33.6368 86.5297 33.9092 86.5297 34.2897V35.2186Z" fill="white"/>
<path d="M97.2223 42.314C97.2223 42.2618 97.2223 42.1984 97.2223 42.1238C97.2223 42.0492 97.2258 41.9447 97.233 41.8104C97.2474 41.6686 97.2653 41.4858 97.2868 41.262C97.3155 41.0307 97.3514 40.7285 97.3944 40.3555L97.9646 35.6103H97.0716C96.921 35.6103 96.7955 35.5543 96.6951 35.4424C96.5947 35.323 96.5624 35.1514 96.5983 34.9276L96.7489 33.5734L98.438 33.2153L99.3739 30.3838C99.4959 30.0257 99.7397 29.8466 100.105 29.8466H101.913L101.504 33.2377H104L103.72 35.6103H101.224L100.686 40.1652C100.651 40.4711 100.622 40.7136 100.6 40.8927C100.579 41.0643 100.561 41.1986 100.547 41.2956C100.539 41.3851 100.536 41.4485 100.536 41.4858C100.536 41.5157 100.536 41.5343 100.536 41.5418C100.536 41.7582 100.582 41.941 100.676 42.0902C100.776 42.232 100.93 42.3028 101.138 42.3028C101.253 42.3028 101.346 42.2916 101.418 42.2693C101.497 42.2394 101.565 42.2096 101.622 42.1797C101.68 42.1424 101.734 42.1126 101.784 42.0902C101.834 42.0603 101.891 42.0454 101.956 42.0454C102.056 42.0454 102.128 42.0715 102.171 42.1238C102.221 42.1685 102.271 42.2431 102.322 42.3476L103.053 43.9928C102.609 44.3285 102.132 44.5822 101.622 44.7538C101.113 44.9179 100.6 45 100.084 45C99.6536 45 99.2663 44.9403 98.9221 44.8209C98.5778 44.6941 98.2802 44.515 98.0291 44.2837C97.7853 44.045 97.5916 43.7615 97.4482 43.4332C97.3119 43.1049 97.2366 42.7318 97.2223 42.314Z" fill="white"/>
<path d="M80.9285 8.53304C83.3613 8.94949 85.1449 11.0036 85.1449 11.0036L75.0475 10.6873C75.6002 9.02777 77.9141 8.01951 80.9285 8.53304ZM115 20.6447C113.872 18.6094 112.149 17.3099 110.221 17.3099C107.528 17.3099 105.24 19.8462 104.404 23.3814L104.472 22.3669C104.928 19.4861 107.573 16.1545 109.514 16.1545H104.88V16.1482H63.189C65.686 18.2211 66.8911 21.3962 67.0679 24.3771C64.8954 18.5248 61.1483 16.8809 56.3406 16.8809C51.5362 16.8809 46.33 19.7241 43.4409 28C43.3252 25.1474 44.9738 19.3672 49.248 16.1482C43.8362 16.1482 35.201 21.3931 32.5433 21.2835C32.5433 21.2835 38.6364 18.8599 40.8378 16.1482C40.8378 16.1482 43.5823 12.7571 40.2947 11.9273C39.3563 11.6893 38.0515 11.8302 36.599 12.2404C36.5957 12.2404 36.5893 12.2436 36.5861 12.2436C36.525 12.2624 36.4576 12.2811 36.3901 12.3031C36.2551 12.3438 36.1233 12.3845 35.9851 12.4283C32.4533 13.5618 25.4057 16.5991 21.9478 18.0207C21.5332 18.1898 21.0704 18.3839 20.5755 18.5906C20.161 18.766 19.711 18.8568 19.2579 18.8568H0.0465108C-0.00169448 18.8568 -0.0177629 18.7941 0.024015 18.7691C2.10648 17.4821 3.47551 16.4927 4.51353 15.6378C5.39729 14.9615 6.2682 14.1912 7.01699 13.3364C7.01699 13.3364 29.0275 10.9128 43.2288 10.9942C57.4301 11.0787 67.5982 11.705 67.5982 11.705C67.5982 11.705 74.2055 3.21931 74.3758 2.88427C74.5461 2.54922 75.4042 1.71318 72.3608 1.37814C69.3143 1.04309 60.3063 0.416843 49.8779 2.92497C49.8779 2.92497 56.8837 0.526437 65.0658 0.166343C75.7577 -0.306475 81.7994 0.175737 87.8476 2.29872C94.4003 4.60019 105.009 12.206 105.009 12.206C105.009 12.206 106.291 13.1516 107.541 13.3082C108.772 13.4616 113.03 13.5775 113.255 13.5775C113.493 13.5775 113.698 14.0158 113.348 14.1442C112.882 14.3164 110.687 15.0648 111.346 15.4531C111.867 15.7662 113.461 17.263 115 20.6447ZM95.1394 6.85782C90.4635 4.1806 85.5305 2.59306 81.883 1.9261C78.2355 1.25602 76.8214 3.26315 75.9634 4.30898C75.1053 5.35482 70.1723 11.9242 70.1723 11.9242C70.1723 11.9242 94.712 12.8354 99.5197 12.5849C104.321 12.3344 99.8186 9.5319 95.1394 6.85782ZM66.2805 17.5604C66.7658 18.2117 67.1707 18.9131 67.4985 19.649C67.5532 19.2763 67.6174 18.8192 67.6753 18.3276L91.4308 17.5823L66.2805 17.5604Z" fill="url(#paint0_linear_110_32)"/>
<defs>
<linearGradient id="paint0_linear_110_32" x1="-0.00169448" y1="14.0001" x2="114.999" y2="14.0001" gradientUnits="userSpaceOnUse">
<stop stop-color="#00B9DB"/>
<stop offset="1" stop-color="#00387C"/>
</linearGradient>
</defs>
</svg>
