<svg width="15" height="15" viewBox="0 0 15 15" fill="none" xmlns="http://www.w3.org/2000/svg">
<path d="M14.9962 15L14.9999 14.999V9.49777C14.9999 6.80621 14.4205 4.7334 11.2743 4.7334C9.76209 4.7334 8.74678 5.56309 8.3324 6.35059H8.28928V4.98465H5.30615V14.999H8.41303V10.0406C8.41303 8.73465 8.66053 7.47277 10.2777 7.47277C11.8705 7.47277 11.8949 8.96246 11.8949 10.125V15H14.9962Z" fill="white"/>
<path d="M0.24707 4.98535H3.35676V14.9997H0.24707V4.98535Z" fill="white"/>
<path d="M1.80094 0C0.807187 0 0 0.807187 0 1.80094C0 2.79562 0.807187 3.61875 1.80094 3.61875C2.79469 3.61875 3.60188 2.79562 3.60188 1.80094C3.60188 0.807187 2.79469 0 1.80094 0Z" fill="white"/>
</svg>
