<svg width="12" height="15" viewBox="0 0 12 15" fill="none" xmlns="http://www.w3.org/2000/svg">
<path d="M6.13057 0C3.04701 0 0 2.05554 0 5.3824C0 7.49804 1.19005 8.70011 1.91129 8.70011C2.20893 8.70011 2.3801 7.87068 2.3801 7.63652C2.3801 7.35716 1.66799 6.76189 1.66799 5.59877C1.66799 3.18261 3.50716 1.46941 5.88727 1.46941C7.93367 1.46941 9.44828 2.63254 9.44828 4.76934C9.44828 6.36521 8.8083 9.35837 6.73449 9.35837C5.98632 9.35837 5.34585 8.81744 5.34585 8.04234C5.34585 6.90614 6.13922 5.80649 6.13922 4.63423C6.13922 2.64504 3.31724 3.00566 3.31724 5.4098C3.31724 5.91467 3.38023 6.4734 3.60573 6.93355C3.19078 8.71887 2.34356 11.3783 2.34356 13.2175C2.34356 13.7854 2.42482 14.3446 2.47867 14.9124C2.58061 15.0269 2.52964 15.0148 2.68591 14.9576C4.20052 12.8838 4.14667 12.4785 4.83185 9.76467C5.2016 10.4681 6.15701 10.8465 6.91432 10.8465C10.1056 10.8465 11.5394 7.73605 11.5394 4.93234C11.5394 1.94832 8.9612 0 6.13057 0Z" fill="white"/>
</svg>
