<svg width="65" height="64" viewBox="0 0 65 64" fill="none" xmlns="http://www.w3.org/2000/svg">
<g id="T">
<path id="path35" d="M32.235 64.0003L41.2598 13.4329C49.8524 13.4329 52.5725 14.3708 52.9538 18.1982C52.9538 18.1982 58.7246 16.0437 61.6227 11.7093C50.2845 6.4625 38.8701 6.23438 38.8701 6.23438L32.2096 14.3201H32.235L25.5999 6.23438C25.5999 6.23438 14.1855 6.4625 2.84741 11.7093C5.7455 16.069 11.5163 18.1982 11.5163 18.1982C11.8976 14.3708 14.6177 13.4329 23.1594 13.4076L32.235 64.0003Z" fill="white" fill-opacity="0.69"/>
<path id="path37" d="M32.2349 3.90344C41.4121 3.8274 51.9114 5.32288 62.6648 9.98673C64.1138 7.40133 64.4697 6.26072 64.4697 6.26072C52.7249 1.62221 41.7172 0.0506941 32.2349 0C22.778 0.0506941 11.7703 1.62221 0 6.26072C0 6.26072 0.533859 7.65481 1.80495 9.98673C12.5584 5.29753 23.0576 3.8274 32.2349 3.90344Z" fill="white" fill-opacity="0.69"/>
</g>
</svg>
