<svg width="77" height="64" viewBox="0 0 77 64" fill="none" xmlns="http://www.w3.org/2000/svg">
<g id="icon">
<path id="Path" d="M10.8261 22.3452C14.7981 10.8223 25.7795 3.03646 38.1629 3.03646C50.5462 3.03646 61.5276 10.8223 65.4996 22.3452V22.4231H74.2224V21.4109L70.6398 21.0217C68.3812 20.7881 67.914 19.7759 67.2909 18.5302L67.1351 18.2188C61.917 7.16294 50.5462 0 38.1629 0C25.7795 0 14.4087 7.16294 9.1127 18.2188L8.95693 18.5302C8.41175 19.7759 7.86658 20.7881 5.68587 21.0217L2.02539 21.4109V22.4231H10.7482L10.8261 22.3452Z" fill="white" fill-opacity="0.69"/>
<path id="Path_1_" d="M65.5775 41.5771V41.655C61.5276 53.178 50.5462 60.9638 38.1629 60.9638C25.7795 60.9638 14.7981 53.178 10.8261 41.655V41.5771H2.02539V42.5893L5.68587 42.9786C7.94446 43.2122 8.41175 44.2243 9.03481 45.47L9.19058 45.7815C14.3308 56.8373 25.7795 64.0002 38.1629 64.0002C50.5462 64.0002 61.917 56.8373 67.213 45.7815L67.3688 45.47C67.9918 44.2243 68.4591 43.29 70.7177 42.9786L74.3782 42.5893V41.5771H65.5775Z" fill="white" fill-opacity="0.69"/>
<path id="Rectangle" d="M17.6788 27.9521H15.6538V36.828H17.6788V27.9521Z" fill="white" fill-opacity="0.69"/>
<path id="Path_2_" d="M10.9035 36.7501V27.9521H8.95648V34.5701L2.49224 27.9521H0V36.7501H1.94706V30.1322L8.48919 36.7501H10.9035Z" fill="white" fill-opacity="0.69"/>
<path id="Shape" d="M55.2194 27.9521L49.7676 36.828H52.1041L53.0386 35.2708H59.3471L60.2817 36.828H62.6182L57.1664 27.9521H55.2194ZM58.4125 33.5579H54.0511L56.2318 29.9765L58.4125 33.5579Z" fill="white" fill-opacity="0.69"/>
<path id="Path_3_" d="M44.2365 34.9571C44.1586 34.9571 43.925 34.9571 43.8471 34.9571H35.6694V36.7479H43.925C44.0029 36.7479 44.4702 36.7479 44.548 36.7479C46.2615 36.5922 46.9624 35.2686 46.9624 34.0229C46.9624 32.7771 46.1836 31.5314 44.6259 31.3757C44.3923 31.3757 44.1586 31.3757 44.0029 31.3757H38.629C38.3953 31.3757 38.2396 31.3757 38.0059 31.2978C37.6165 31.22 37.3829 30.9085 37.4607 30.5192C37.4607 30.13 37.6944 29.8185 38.0838 29.7407C38.2396 29.6628 38.4732 29.6628 38.629 29.6628H46.4172V27.8721H38.5511C38.3174 27.8721 38.0059 27.8721 37.7723 27.9499C36.4483 28.1056 35.4358 29.1957 35.4358 30.5192C35.4358 31.6093 36.1367 32.9328 37.6944 33.0886C38.0059 33.0886 38.2396 33.1664 38.5511 33.0886H43.7692C43.8471 33.0886 44.0807 33.0886 44.1586 33.0886C44.6259 33.1664 44.9375 33.5557 44.9375 33.945C44.9375 34.49 44.6259 34.8793 44.2365 34.9571Z" fill="white" fill-opacity="0.69"/>
<path id="Path_4_" d="M29.9064 34.9594C29.8285 34.9594 29.5949 34.9594 29.517 34.9594H21.4172V36.7501H29.5949C29.6728 36.7501 30.1401 36.7501 30.218 36.7501C31.9314 36.5944 32.7102 35.2708 32.7102 34.1029C32.7102 32.9351 31.9314 31.6115 30.3737 31.4558C30.1401 31.4558 29.9064 31.4558 29.7507 31.4558H24.3768C24.1431 31.4558 23.9874 31.4558 23.7537 31.3779C23.3643 31.3 23.1307 30.9886 23.2085 30.5993C23.2085 30.21 23.4422 29.8986 23.8316 29.8207C23.9874 29.7429 24.221 29.7429 24.3768 29.7429H32.165V27.9521H24.221C23.9874 27.9521 23.6758 27.9521 23.4422 28.03C22.1182 28.1857 21.1057 29.2757 21.1057 30.5993C21.1057 31.6893 21.8067 33.0129 23.3643 33.1686C23.6758 33.1686 23.9095 33.2465 24.221 33.1686H29.4391C29.517 33.1686 29.7507 33.1686 29.8285 33.1686C30.2958 33.2465 30.6074 33.6358 30.6074 34.0251C30.6853 34.4922 30.2958 34.8815 29.9064 34.9594Z" fill="white" fill-opacity="0.69"/>
<path id="Path_5_" d="M76.3247 36.7501V27.9521H74.3776V34.5701L67.9134 27.9521H65.4211V36.7501H67.3682V30.1322L73.9103 36.7501H76.3247Z" fill="white" fill-opacity="0.69"/>
<path id="Shape_1_" d="M71.263 58.6274C72.1976 58.6274 72.9764 59.406 72.9764 60.3403C72.9764 61.2746 72.1976 62.0531 71.263 62.0531C70.3284 62.0531 69.5496 61.2746 69.5496 60.3403C69.5496 59.8731 69.7053 59.4838 70.0947 59.0945C70.3284 58.7831 70.7957 58.5495 71.263 58.6274ZM71.263 61.6639C71.6524 61.6639 71.9639 61.5081 72.1976 61.2746C72.4312 61.041 72.587 60.6517 72.587 60.3403C72.587 59.6395 71.9639 59.0167 71.263 59.0945C70.562 59.0945 69.939 59.7174 69.939 60.4181C69.939 61.041 70.4841 61.6639 71.263 61.6639ZM70.562 61.1967V59.4838C70.7957 59.4838 70.9514 59.406 71.1851 59.406C71.4966 59.406 71.9639 59.4838 71.9639 59.8731C71.9639 60.1067 71.8082 60.2624 71.5745 60.2624C71.7303 60.3403 71.8082 60.496 71.886 60.6517C71.886 60.8074 71.9639 60.9631 72.0418 61.041H71.6524C71.5745 60.8853 71.5745 60.7296 71.4966 60.6517C71.4187 60.4181 71.263 60.4181 70.9514 60.4181V61.1189L70.562 61.1967ZM70.9514 60.1846C71.263 60.1846 71.5745 60.1846 71.5745 59.951C71.5745 59.7953 71.4966 59.7174 71.1851 59.7174C71.1072 59.7174 71.0293 59.7174 70.9514 59.7174V60.1846Z" fill="white" fill-opacity="0.69"/>
</g>
</svg>
