<svg width="98" height="64" viewBox="0 0 98 64" fill="none" xmlns="http://www.w3.org/2000/svg">
<path id="Vector" d="M70.8686 3.14543C64.7832 1.15546 57.24 0 49.0628 0C40.8857 0 33.3424 1.15546 27.2571 3.14543C11.093 8.40923 0 19.322 0 31.9037C0 49.6209 21.9325 64 48.9995 64C76.0664 64 97.9989 49.6209 97.9989 31.9037C98.1257 19.322 87.0327 8.40923 70.8686 3.14543ZM49.0628 50.2628C45.006 50.2628 41.7098 42.2387 41.5196 32.0963C43.9284 32.2889 46.4639 32.4173 49.0628 32.4173C51.6618 32.4173 54.1339 32.2889 56.6061 32.0963C56.4159 42.1745 53.1197 50.2628 49.0628 50.2628ZM42.0267 24.1364C43.1043 17.011 45.83 12.004 49.0628 12.004C52.2323 12.004 54.958 17.011 56.099 24.1364C53.8804 24.329 51.4716 24.4574 49.0628 24.4574C46.6541 24.4574 44.3087 24.3932 42.0267 24.1364ZM60.4094 23.6229C58.7613 12.4534 54.3241 4.49348 49.0628 4.49348C43.8016 4.49348 39.3644 12.4534 37.7163 23.6229C27.7642 22.0181 20.7915 18.4875 20.7915 14.3149C20.7915 8.66599 33.4058 4.10832 48.9995 4.10832C64.5931 4.10832 77.2074 8.66599 77.2074 14.3149C77.3342 18.4875 70.3615 22.0822 60.4094 23.6229ZM7.22631 30.7482C7.22631 25.2919 9.31814 20.2207 12.8679 15.8556C12.8045 16.1765 12.8045 16.4975 12.8045 16.7543C12.8045 23.6229 22.9467 29.4002 37.0824 31.5186C37.0824 32.0321 37.0824 32.5456 37.0824 33.0592C37.0824 45.7693 40.5688 56.5537 45.3863 60.2768C23.9609 58.993 7.22631 46.2828 7.22631 30.7482ZM52.8028 60.2768C57.6203 56.5537 61.1067 45.7693 61.1067 33.0592C61.1067 32.5456 61.1067 32.0321 61.1067 31.5186C75.2424 29.4002 85.3846 23.5587 85.3846 16.7543C85.3846 16.4333 85.3846 16.1123 85.3212 15.8556C88.9343 20.2207 90.9628 25.3561 90.9628 30.7482C90.9628 46.2828 74.1648 58.993 52.8028 60.2768Z" fill="white" fill-opacity="0.69"/>
</svg>
