<svg width="180" height="64" viewBox="0 0 180 64" fill="none" xmlns="http://www.w3.org/2000/svg">
<g id="layer1">
<path id="path741" d="M126.596 39.4252C126.629 39.588 126.824 39.7346 127.036 39.816C127.118 39.8486 127.151 39.8974 127.069 40.0603C126.482 41.3142 125.944 42.0308 125.227 43.1056C124.558 44.1153 123.792 44.8969 122.879 45.646C121.493 46.786 119.569 48.0399 117.988 47.1931C117.287 46.8349 116.977 45.8415 116.993 45.0435C117.026 42.7962 118.02 40.5 119.879 38.2364C122.129 35.4679 124.623 34.0348 126.254 34.8165C127.949 35.6145 127.411 37.5687 126.645 39.1158C126.58 39.2135 126.58 39.3275 126.596 39.4252ZM144.726 21.9351C144.84 21.7234 144.726 21.5605 144.449 21.5605C143.03 21.5605 141.188 21.5605 139.721 21.5605C139.378 21.5605 139.183 21.6094 139.02 21.9351C138.482 22.9773 131.862 32.8786 130.64 34.8002C130.428 35.0934 130.183 35.0445 130.15 34.7188C130.02 33.5789 129.042 32.2598 127.477 31.641C126.286 31.1687 125.129 31.071 123.922 31.2338C121.754 31.527 119.814 32.6669 118.102 33.9697C115.542 35.9239 113.325 38.4481 110.456 40.3209C108.89 41.3305 106.755 42.2262 105.32 40.9071C104.032 39.702 104.179 37.0476 106.151 34.9794C106.363 34.7677 106.608 34.9468 106.575 35.1422C106.396 36.0705 106.624 36.9987 107.325 37.6501C108.189 38.4318 109.428 38.5132 110.488 37.9921C111.743 37.3733 112.477 36.1845 112.689 34.8328C113.015 32.732 111.401 30.8756 109.379 30.729C107.733 30.615 106.151 31.185 104.619 32.4552C103.852 33.0903 103.412 33.5626 102.744 34.5071C102.581 34.7351 102.336 34.7677 102.336 34.4257C102.418 31.7387 101.293 30.2242 99.0755 30.1753C97.3473 30.1265 95.5049 31.071 94.0539 32.2109C92.4724 33.4812 91.1029 35.1585 89.6193 36.7382C89.4399 36.9336 89.2769 36.9173 89.228 36.5427C89.1791 34.7677 88.7389 33.0252 87.9074 31.8038C87.6139 31.3804 86.9944 31.1687 86.489 31.4618C86.2444 31.5921 85.4129 31.9667 84.8097 32.4552C84.5162 32.6995 84.3858 33.0577 84.5325 33.5137C85.3314 36.1845 85.1521 39.1972 84.076 41.7702C83.0815 44.1153 81.1576 46.2323 78.8751 46.9326C77.3752 47.4048 75.8263 47.1768 74.8644 45.8578C73.5438 44.0338 74.0818 40.8583 76.0382 38.2201C77.7827 35.8913 80.2935 34.4257 82.788 33.4649C83.0815 33.3509 83.1467 33.1555 83.0652 32.9112C82.9347 32.5041 82.7065 31.9341 82.625 31.6898C82.3967 31.071 81.7446 30.9733 80.962 31.071C79.136 31.2827 77.5056 31.9015 75.8752 32.7809C71.6199 35.0608 69.5004 39.4577 68.5548 41.8028C68.0983 42.9265 67.7233 43.643 67.2179 44.2618C66.5495 45.1086 65.7017 45.874 64.1691 47.2094C64.0224 47.3397 63.9245 47.584 64.0387 47.8282C64.2017 48.1539 65.0006 49.2776 65.2288 49.3753C65.4734 49.5056 65.7669 49.3265 65.881 49.245C66.957 48.5122 68.245 47.356 68.8809 46.5743C69.1091 46.3137 69.3211 46.4114 69.4515 46.8186C70.0385 48.9193 71.571 50.6293 73.7068 51.3458C77.6034 52.6649 81.6467 50.7595 84.6955 47.4537C86.6357 45.3529 87.3368 44.0013 88.0704 43.073C89.3258 41.5097 91.8203 38.0247 94.7713 35.7936C95.8636 34.9631 97.1353 34.3443 97.7875 34.7514C98.3092 35.0934 98.4722 35.8588 97.6407 37.3733C94.6245 42.8776 90.1899 49.3427 89.3747 50.9061C89.228 51.1829 89.3584 51.3947 89.6356 51.3947C91.2171 51.3947 92.7822 51.3947 94.2169 51.3947C94.4615 51.3784 94.5593 51.2807 94.6898 51.1015C97.0049 47.4862 99.1896 44.0338 101.521 40.4674C101.651 40.2557 101.766 40.4186 101.782 40.5163C101.831 41.3468 102.026 42.4705 102.532 43.2196C103.412 44.5875 104.668 45.1738 106.053 45.1901C107.162 45.2064 107.716 45.0272 108.907 44.5875C109.869 44.2293 110.651 43.757 111.254 43.3336C111.597 43.0893 111.662 43.4964 111.662 43.5616C111.124 46.4277 111.792 49.8476 114.646 51.2481C118.069 52.9254 121.819 50.5641 123.988 48.4308C124.2 48.2191 124.428 48.2516 124.444 48.6913C124.493 49.5056 124.852 50.4827 125.536 51.1504C127.346 52.9743 131.015 52.2415 134.683 49.4079C137.047 47.584 139.509 45.0272 141.726 42.3076C141.808 42.2099 141.873 42.0308 141.71 41.8679C141.367 41.5097 140.878 41.1025 140.536 40.7931C140.389 40.6628 140.161 40.6954 140.031 40.7931C137.748 42.959 135.694 45.4343 132.726 47.4863C131.732 48.1865 130.134 48.7402 129.417 47.7794C129.14 47.4048 129.172 46.8837 129.449 46.1997C130.297 44.0013 144.009 23.1565 144.726 21.9351Z" fill="white" fill-opacity="0.69"/>
<path id="path745" d="M80.2152 24.4348C80.2804 24.7442 80.3945 24.8094 80.5413 24.7768C81.2423 24.6302 82.0086 24.0603 82.4488 23.3926C82.8564 22.79 83.052 21.9269 82.6444 21.5687C82.2858 21.2592 81.6825 21.3407 81.2423 21.7315C80.3619 22.5132 80.1011 23.6206 80.2152 24.4348ZM45.2599 51.2888C40.1405 51.3213 35.6407 48.162 35.1189 42.7066C34.8255 39.6776 35.6896 36.9743 37.4015 34.7595C38.9177 32.7727 41.4937 31.1279 43.6784 30.7371C44.3958 30.6068 45.3414 30.6882 45.7327 31.1605C46.3522 31.8771 46.1729 32.675 45.5534 32.9844C43.8904 33.8313 41.885 35.2806 40.9068 37.2674C40.1079 38.8796 39.9449 40.8338 41.1676 42.6903C43.2219 45.7844 48.9445 45.8659 54.2596 40.9315C55.5802 39.7264 56.7541 38.5539 57.9605 37.186C60.3083 34.5152 61.0909 33.5381 64.2049 29.2226C64.2375 29.1737 64.2538 29.1086 64.2375 29.076C64.2049 29.0109 64.1723 29.0109 64.0744 28.9946C61.9876 29.0598 60.1778 29.6786 58.417 30.9814C57.9116 31.3559 57.1779 31.3071 56.8519 30.8185C56.4932 30.2648 56.7541 29.5483 57.341 29.1412C60.1778 27.1707 63.2756 26.8124 66.4385 26.275C66.4385 26.275 66.6504 26.2913 66.8461 26.047C68.1504 24.386 69.1286 22.8877 70.5144 21.1941C71.9166 19.4842 73.71 17.9208 75.0795 16.732C77.0033 15.0872 78.2261 14.5335 79.4815 13.8496C79.8076 13.6704 79.4326 13.475 79.3348 13.475C72.3405 12.1559 65.069 10.4623 58.1399 13.0353C53.3303 14.8267 51.2271 18.6374 52.2379 21.1778C52.9553 22.9855 55.3356 23.2786 57.5692 22.1875C59.4116 21.2755 61.1235 19.8262 62.3462 17.9534C63.031 16.9112 64.4494 17.6603 63.6832 19.4679C61.6452 24.2394 57.7649 28.0175 53.0368 28.1804C49.0098 28.3106 46.4175 25.3468 46.4175 21.6989C46.4338 14.501 54.4552 9.76204 62.8843 9.06179C73.0415 8.23126 82.6445 10.9183 92.7202 12.1397C100.448 13.0679 107.85 13.1005 115.611 11.3091C116.524 11.1137 117.176 11.7 117.111 12.6282C117.029 13.9636 116.002 15.2501 113.442 16.6506C110.54 18.2465 107.491 18.7188 104.312 18.7514C96.6331 18.8165 89.4757 15.8201 82.0738 14.2241C82.0901 14.5498 82.1716 14.9407 81.8945 15.1361C77.7859 18.1651 74.085 21.2267 71.6068 25.5422C71.5253 25.6399 71.5579 25.7376 71.7209 25.7213C73.873 25.6073 75.8132 25.5585 77.8348 25.3956C78.1935 25.3631 78.1935 25.2816 78.1609 25.0211C77.9816 23.5391 78.4218 21.8455 79.7261 20.673C81.063 19.4679 82.7423 19.3376 83.8509 20.2007C85.1063 21.1778 85.0085 22.9529 84.3074 24.272C83.6064 25.6236 82.4488 26.3402 81.3238 26.6821C81.3238 26.6821 81.0956 26.731 81.1282 26.9427C81.1771 27.2847 82.6934 28.1315 82.8238 28.3432C82.9542 28.5549 82.889 28.8806 82.6608 29.1412C82.4977 29.3203 82.2532 29.4994 81.9271 29.4994C81.6662 29.4994 81.5032 29.4017 81.1771 29.2226C80.4923 28.848 79.6446 28.2455 79.0739 27.529C78.8783 27.2847 78.7805 27.2847 78.2913 27.301C76.1066 27.4312 72.7154 27.7569 70.4166 28.0338C69.8623 28.0989 69.7808 28.2129 69.6666 28.3921C65.9983 34.4338 62.0854 40.9478 57.7812 45.3122C53.1672 50.0185 49.3358 51.2562 45.2599 51.2888Z" fill="white" fill-opacity="0.69"/>
<path id="path749" d="M89.7196 2.63817C41.9007 2.63817 3.14663 15.829 3.14663 31.9837C3.14663 48.1384 41.9007 61.3293 89.7196 61.3293C137.522 61.3293 176.276 48.1384 176.276 31.9837C176.276 15.8453 137.522 2.63817 89.7196 2.63817ZM89.7196 64C40.1725 64 0 49.6692 0 32C0 14.3145 40.1725 0 89.7196 0C139.267 0 179.439 14.3308 179.439 32C179.439 49.6692 139.267 64 89.7196 64Z" fill="white" fill-opacity="0.69"/>
</g>
</svg>
