<svg width="64" height="64" viewBox="0 0 64 64" fill="none" xmlns="http://www.w3.org/2000/svg">
<g id="Group 5">
<path id="Vector" d="M32 62.397C15.2136 62.397 1.60302 48.7864 1.60302 32C1.60302 15.2136 15.2136 1.60302 32 1.60302C48.7864 1.60302 62.397 15.2136 62.397 32C62.397 48.7864 48.7864 62.397 32 62.397ZM32 0C14.3214 0 0 14.3214 0 32C0 49.6786 14.3214 64 32 64C49.6786 64 64 49.6786 64 32C64 14.3214 49.6635 0 32 0ZM32 62.6541C36.1437 62.6541 40.1512 61.8374 43.9319 60.2495C47.5766 58.707 50.8582 56.4991 53.6711 53.6862C56.4839 50.8733 58.6919 47.5917 60.2344 43.9471C61.8374 40.1664 62.6389 36.1588 62.6389 32.0151C62.6389 27.8715 61.8223 23.8639 60.2344 20.0832C58.6919 16.4386 56.4839 13.1569 53.6711 10.344C50.8582 7.53119 47.5766 5.32325 43.9319 3.78072C40.1512 2.17769 36.1437 1.37618 32 1.37618C27.8563 1.37618 23.8488 2.19282 20.0681 3.78072C16.4234 5.32325 13.1418 7.53119 10.3289 10.344C7.51607 13.1569 5.30813 16.4386 3.7656 20.0832C2.16257 23.8639 1.36106 27.8715 1.36106 32.0151C1.36106 36.1588 2.17769 40.1664 3.7656 43.9471C5.30813 47.5917 7.51607 50.8733 10.3289 53.6862C13.1418 56.4991 16.4234 58.707 20.0681 60.2495C23.8488 61.8374 27.8563 62.6541 32 62.6541ZM32 0.257089C36.2798 0.257089 40.4386 1.08885 44.3554 2.75236C48.1361 4.35539 51.5387 6.63894 54.4423 9.55766C57.3611 12.4764 59.6446 15.8639 61.2476 19.6446C62.896 23.5614 63.7429 27.7202 63.7429 32C63.7429 36.2798 62.9111 40.4386 61.2476 44.3554C59.6446 48.1361 57.3611 51.5236 54.4423 54.4423C51.5236 57.3611 48.1361 59.6446 44.3554 61.2476C40.4386 62.896 36.2798 63.7429 32 63.7429C27.7202 63.7429 23.5614 62.9111 19.6446 61.2476C15.8639 59.6446 12.4612 57.3611 9.55766 54.4423C6.65406 51.5236 4.35539 48.1361 2.75236 44.3554C1.10397 40.4386 0.257089 36.2798 0.257089 32C0.257089 27.7202 1.10397 23.5614 2.75236 19.6446C4.35539 15.8639 6.63894 12.4764 9.55766 9.55766C12.4764 6.63894 15.8639 4.35539 19.6446 2.75236C23.5463 1.08885 27.7051 0.257089 32 0.257089Z" fill="white" fill-opacity="0.69"/>
<path id="Vector_2" d="M13.1412 12.4447C12.748 12.112 12.128 12.0969 11.8557 12.4296L9.49658 15.2424L10.9484 16.4674L13.2773 13.6848C13.5798 13.3218 13.5798 12.8077 13.1412 12.4447ZM15.9994 15.6961C16.3321 15.3029 16.2716 14.698 15.8028 14.3048C15.3794 13.957 14.7593 14.0477 14.4871 14.3804L12.007 17.3294L13.5495 18.6149L15.9994 15.6961Z" fill="white" fill-opacity="0.69"/>
<path id="Vector_3" d="M32.0005 1.60059C15.2141 1.60059 1.60352 15.2112 1.60352 31.9976C1.60352 48.7839 15.2141 62.3945 32.0005 62.3945C48.7869 62.3945 62.3975 48.7839 62.3975 31.9976C62.3975 15.2112 48.7869 1.60059 32.0005 1.60059ZM27.3426 2.71968H29.7623L31.9551 8.45125L34.1328 2.71968H36.5525V10.7499H34.9495V5.13934L32.8322 10.7499H31.078L28.9608 5.13934V10.7499H27.3578L27.3426 2.71968ZM7.07799 15.9371L10.9948 11.2641C11.8115 10.2962 12.9457 9.52497 14.0194 10.4323C14.3521 10.7197 14.4882 10.8104 14.8965 11.5363C14.9873 11.7934 15.0629 12.2773 14.8814 12.731C15.819 12.1564 16.8171 12.3378 17.4674 12.973C18.4655 13.9408 18.3143 15.0599 17.3767 16.179L13.2481 21.1091L7.07799 15.9371ZM32.0005 52.3832C20.7491 52.3832 11.6149 43.2641 11.6149 31.9976C11.6149 20.7461 20.7339 11.6119 32.0005 11.6119C43.2519 11.6119 52.3861 20.731 52.3861 31.9976C52.371 43.249 43.2519 52.3832 32.0005 52.3832ZM50.8436 20.8218L49.4674 19.1582L52.0988 15.196L52.0837 15.1809L47.698 17.0562L46.3067 15.4078L50.889 9.3435L52.0534 10.7499L49.1801 14.6063L53.6413 12.6252L54.8965 14.1374L52.1442 18.145L56.4542 16.0278L57.6186 17.4342L50.8436 20.8218Z" fill="white" fill-opacity="0.69"/>
<path id="Vector_4" d="M12.8235 31.9986H31.9842V12.8379C21.4133 12.8379 12.8235 21.4126 12.8235 31.9986ZM31.9993 31.9986V51.1593C42.5853 51.1593 51.16 42.5846 51.16 31.9986H31.9993Z" fill="white" fill-opacity="0.69"/>
</g>
</svg>
