<svg width="64" height="64" viewBox="0 0 64 64" fill="none" xmlns="http://www.w3.org/2000/svg">
<g id="Group 6">
<path id="Vector" d="M32.6796 31.8184L34.0847 30.9572L52.0337 43.2405L32.6796 31.8184ZM31.6371 31.1385L30.3227 30.368L31.8184 6.93457L31.6371 31.1385ZM30.0507 31.0479L24.113 35.9884L31.2292 31.7731L30.0507 31.0479Z" fill="white" fill-opacity="0.69"/>
<path id="Vector_2" d="M32 0C14.3229 0 0 14.3229 0 32C0 49.6771 14.3229 64 32 64C49.6771 64 64 49.6771 64 32C64 14.3229 49.6771 0 32 0ZM32 62.2323C24.7025 62.2323 17.8584 59.7847 12.7365 55.3428C7.79603 50.9915 3.94334 44.0567 2.9915 36.7139C5.25779 50.7195 17.3598 61.3711 32 61.3711C48.2266 61.3711 61.3711 48.2266 61.3711 32C61.3711 25.2465 58.8782 18.6742 55.0255 13.7337C58.8782 16.7252 62.2323 25.2011 62.2323 32C62.2776 48.7252 48.7252 62.2323 32 62.2323ZM29.2351 29.6884L31.8187 3.1728H32.0453L32.3173 31.0935L36.7592 28.4193L32.3173 3.1728C48.0907 3.30878 60.8272 16.1813 60.8272 31.9547C60.8272 37.0312 59.5127 41.7904 57.2011 45.9603L37.2125 29.2351L35.3088 30.3229L57.0652 46.2323C57.0198 46.3229 56.9745 46.4136 56.8839 46.5042L32.4079 32.4079V37.3484L56.7025 46.7309C51.6714 55.1161 42.4703 60.7365 32 60.7365C21.5297 60.7365 12.3286 55.1161 7.29745 46.7762L31.5921 37.3484V32.3626L7.11615 46.4136C7.07082 46.3229 7.0255 46.2323 6.93484 46.1416L28.6006 30.2776L26.6969 29.1898L6.75354 45.8244C4.48725 41.6997 3.1728 36.9858 3.1728 31.9093C3.1728 16.2266 15.728 3.49009 31.3201 3.12748L27.4221 28.6459L29.2351 29.6884ZM32 1.72238C15.3201 1.72238 1.76771 15.2748 1.76771 31.9547C1.76771 38.7535 4.2153 45.1445 7.97734 50.7195C9.24646 53.1218 10.6062 54.5722 12.4646 56.5212C5.25779 50.7649 0.589235 41.881 0.589235 31.9547C0.589235 14.5949 14.6402 0.543909 32 0.543909C49.3598 0.543909 63.6827 15.2295 63.1388 31.9547C62.7309 15.6374 48.4533 1.72238 32 1.72238Z" fill="white" fill-opacity="0.69"/>
</g>
</svg>
