<svg width="120" height="120" viewBox="0 0 120 120" fill="none" xmlns="http://www.w3.org/2000/svg">
<g id="Vector" opacity="0.4">
<path d="M13.0959 6.54794C13.0959 10.1643 10.1643 13.0959 6.54794 13.0959C2.93161 13.0959 0 10.1643 0 6.54794C0 2.93161 2.93161 0 6.54794 0C10.1643 0 13.0959 2.93161 13.0959 6.54794Z" fill="url(#paint0_linear_110_4)"/>
<path d="M13.0959 27.8287C13.0959 31.4451 10.1643 34.3767 6.54794 34.3767C2.93161 34.3767 0 31.4451 0 27.8287C0 24.2124 2.93161 21.2808 6.54794 21.2808C10.1643 21.2808 13.0959 24.2124 13.0959 27.8287Z" fill="url(#paint1_linear_110_4)"/>
<path d="M13.0959 49.1096C13.0959 52.7259 10.1643 55.6575 6.54794 55.6575C2.93161 55.6575 0 52.7259 0 49.1096C0 45.4932 2.93161 42.5616 6.54794 42.5616C10.1643 42.5616 13.0959 45.4932 13.0959 49.1096Z" fill="url(#paint2_linear_110_4)"/>
<path d="M13.0959 70.3904C13.0959 74.0067 10.1643 76.9383 6.54794 76.9383C2.93161 76.9383 0 74.0067 0 70.3904C0 66.774 2.93161 63.8424 6.54794 63.8424C10.1643 63.8424 13.0959 66.774 13.0959 70.3904Z" fill="url(#paint3_linear_110_4)"/>
<path d="M13.0959 91.6712C13.0959 95.2875 10.1643 98.2191 6.54794 98.2191C2.93161 98.2191 0 95.2875 0 91.6712C0 88.0548 2.93161 85.1232 6.54794 85.1232C10.1643 85.1232 13.0959 88.0548 13.0959 91.6712Z" fill="url(#paint4_linear_110_4)"/>
<path d="M13.0959 112.952C13.0959 116.568 10.1643 119.5 6.54794 119.5C2.93161 119.5 0 116.568 0 112.952C0 109.336 2.93161 106.404 6.54794 106.404C10.1643 106.404 13.0959 109.336 13.0959 112.952Z" fill="url(#paint5_linear_110_4)"/>
<path d="M34.3767 6.54794C34.3767 10.1643 31.4451 13.0959 27.8287 13.0959C24.2124 13.0959 21.2808 10.1643 21.2808 6.54794C21.2808 2.93161 24.2124 0 27.8287 0C31.4451 0 34.3767 2.93161 34.3767 6.54794Z" fill="url(#paint6_linear_110_4)"/>
<path d="M34.3767 27.8287C34.3767 31.4451 31.4451 34.3767 27.8287 34.3767C24.2124 34.3767 21.2808 31.4451 21.2808 27.8287C21.2808 24.2124 24.2124 21.2808 27.8287 21.2808C31.4451 21.2808 34.3767 24.2124 34.3767 27.8287Z" fill="url(#paint7_linear_110_4)"/>
<path d="M34.3767 49.1096C34.3767 52.7259 31.4451 55.6575 27.8287 55.6575C24.2124 55.6575 21.2808 52.7259 21.2808 49.1096C21.2808 45.4932 24.2124 42.5616 27.8287 42.5616C31.4451 42.5616 34.3767 45.4932 34.3767 49.1096Z" fill="url(#paint8_linear_110_4)"/>
<path d="M34.3767 70.3904C34.3767 74.0067 31.4451 76.9383 27.8287 76.9383C24.2124 76.9383 21.2808 74.0067 21.2808 70.3904C21.2808 66.774 24.2124 63.8424 27.8287 63.8424C31.4451 63.8424 34.3767 66.774 34.3767 70.3904Z" fill="url(#paint9_linear_110_4)"/>
<path d="M34.3767 91.6712C34.3767 95.2875 31.4451 98.2191 27.8287 98.2191C24.2124 98.2191 21.2808 95.2875 21.2808 91.6712C21.2808 88.0548 24.2124 85.1232 27.8287 85.1232C31.4451 85.1232 34.3767 88.0548 34.3767 91.6712Z" fill="url(#paint10_linear_110_4)"/>
<path d="M34.3767 112.952C34.3767 116.568 31.4451 119.5 27.8287 119.5C24.2124 119.5 21.2808 116.568 21.2808 112.952C21.2808 109.336 24.2124 106.404 27.8287 106.404C31.4451 106.404 34.3767 109.336 34.3767 112.952Z" fill="url(#paint11_linear_110_4)"/>
<path d="M55.6575 6.54794C55.6575 10.1643 52.7259 13.0959 49.1096 13.0959C45.4932 13.0959 42.5616 10.1643 42.5616 6.54794C42.5616 2.93161 45.4932 0 49.1096 0C52.7259 0 55.6575 2.93161 55.6575 6.54794Z" fill="url(#paint12_linear_110_4)"/>
<path d="M55.6575 27.8287C55.6575 31.4451 52.7259 34.3767 49.1096 34.3767C45.4932 34.3767 42.5616 31.4451 42.5616 27.8287C42.5616 24.2124 45.4932 21.2808 49.1096 21.2808C52.7259 21.2808 55.6575 24.2124 55.6575 27.8287Z" fill="url(#paint13_linear_110_4)"/>
<path d="M55.6575 49.1096C55.6575 52.7259 52.7259 55.6575 49.1096 55.6575C45.4932 55.6575 42.5616 52.7259 42.5616 49.1096C42.5616 45.4932 45.4932 42.5616 49.1096 42.5616C52.7259 42.5616 55.6575 45.4932 55.6575 49.1096Z" fill="url(#paint14_linear_110_4)"/>
<path d="M55.6575 70.3904C55.6575 74.0067 52.7259 76.9383 49.1096 76.9383C45.4932 76.9383 42.5616 74.0067 42.5616 70.3904C42.5616 66.774 45.4932 63.8424 49.1096 63.8424C52.7259 63.8424 55.6575 66.774 55.6575 70.3904Z" fill="url(#paint15_linear_110_4)"/>
<path d="M55.6575 91.6712C55.6575 95.2875 52.7259 98.2191 49.1096 98.2191C45.4932 98.2191 42.5616 95.2875 42.5616 91.6712C42.5616 88.0548 45.4932 85.1232 49.1096 85.1232C52.7259 85.1232 55.6575 88.0548 55.6575 91.6712Z" fill="url(#paint16_linear_110_4)"/>
<path d="M55.6575 112.952C55.6575 116.568 52.7259 119.5 49.1096 119.5C45.4932 119.5 42.5616 116.568 42.5616 112.952C42.5616 109.336 45.4932 106.404 49.1096 106.404C52.7259 106.404 55.6575 109.336 55.6575 112.952Z" fill="url(#paint17_linear_110_4)"/>
<path d="M76.9383 6.54794C76.9383 10.1643 74.0067 13.0959 70.3904 13.0959C66.774 13.0959 63.8424 10.1643 63.8424 6.54794C63.8424 2.93161 66.774 0 70.3904 0C74.0067 0 76.9383 2.93161 76.9383 6.54794Z" fill="url(#paint18_linear_110_4)"/>
<path d="M76.9383 27.8287C76.9383 31.4451 74.0067 34.3767 70.3904 34.3767C66.774 34.3767 63.8424 31.4451 63.8424 27.8287C63.8424 24.2124 66.774 21.2808 70.3904 21.2808C74.0067 21.2808 76.9383 24.2124 76.9383 27.8287Z" fill="url(#paint19_linear_110_4)"/>
<path d="M76.9383 49.1096C76.9383 52.7259 74.0067 55.6575 70.3904 55.6575C66.774 55.6575 63.8424 52.7259 63.8424 49.1096C63.8424 45.4932 66.774 42.5616 70.3904 42.5616C74.0067 42.5616 76.9383 45.4932 76.9383 49.1096Z" fill="url(#paint20_linear_110_4)"/>
<path d="M76.9383 70.3904C76.9383 74.0067 74.0067 76.9383 70.3904 76.9383C66.774 76.9383 63.8424 74.0067 63.8424 70.3904C63.8424 66.774 66.774 63.8424 70.3904 63.8424C74.0067 63.8424 76.9383 66.774 76.9383 70.3904Z" fill="url(#paint21_linear_110_4)"/>
<path d="M76.9383 91.6712C76.9383 95.2875 74.0067 98.2191 70.3904 98.2191C66.774 98.2191 63.8424 95.2875 63.8424 91.6712C63.8424 88.0548 66.774 85.1232 70.3904 85.1232C74.0067 85.1232 76.9383 88.0548 76.9383 91.6712Z" fill="url(#paint22_linear_110_4)"/>
<path d="M76.9383 112.952C76.9383 116.568 74.0067 119.5 70.3904 119.5C66.774 119.5 63.8424 116.568 63.8424 112.952C63.8424 109.336 66.774 106.404 70.3904 106.404C74.0067 106.404 76.9383 109.336 76.9383 112.952Z" fill="url(#paint23_linear_110_4)"/>
<path d="M98.2191 6.54794C98.2191 10.1643 95.2875 13.0959 91.6712 13.0959C88.0548 13.0959 85.1232 10.1643 85.1232 6.54794C85.1232 2.93161 88.0548 0 91.6712 0C95.2875 0 98.2191 2.93161 98.2191 6.54794Z" fill="url(#paint24_linear_110_4)"/>
<path d="M98.2191 27.8287C98.2191 31.4451 95.2875 34.3767 91.6712 34.3767C88.0548 34.3767 85.1232 31.4451 85.1232 27.8287C85.1232 24.2124 88.0548 21.2808 91.6712 21.2808C95.2875 21.2808 98.2191 24.2124 98.2191 27.8287Z" fill="url(#paint25_linear_110_4)"/>
<path d="M98.2191 49.1096C98.2191 52.7259 95.2875 55.6575 91.6712 55.6575C88.0548 55.6575 85.1232 52.7259 85.1232 49.1096C85.1232 45.4932 88.0548 42.5616 91.6712 42.5616C95.2875 42.5616 98.2191 45.4932 98.2191 49.1096Z" fill="url(#paint26_linear_110_4)"/>
<path d="M98.2191 70.3904C98.2191 74.0067 95.2875 76.9383 91.6712 76.9383C88.0548 76.9383 85.1232 74.0067 85.1232 70.3904C85.1232 66.774 88.0548 63.8424 91.6712 63.8424C95.2875 63.8424 98.2191 66.774 98.2191 70.3904Z" fill="url(#paint27_linear_110_4)"/>
<path d="M98.2191 91.6712C98.2191 95.2875 95.2875 98.2191 91.6712 98.2191C88.0548 98.2191 85.1232 95.2875 85.1232 91.6712C85.1232 88.0548 88.0548 85.1232 91.6712 85.1232C95.2875 85.1232 98.2191 88.0548 98.2191 91.6712Z" fill="url(#paint28_linear_110_4)"/>
<path d="M98.2191 112.952C98.2191 116.568 95.2875 119.5 91.6712 119.5C88.0548 119.5 85.1232 116.568 85.1232 112.952C85.1232 109.336 88.0548 106.404 91.6712 106.404C95.2875 106.404 98.2191 109.336 98.2191 112.952Z" fill="url(#paint29_linear_110_4)"/>
<path d="M119.5 6.54794C119.5 10.1643 116.568 13.0959 112.952 13.0959C109.336 13.0959 106.404 10.1643 106.404 6.54794C106.404 2.93161 109.336 0 112.952 0C116.568 0 119.5 2.93161 119.5 6.54794Z" fill="url(#paint30_linear_110_4)"/>
<path d="M119.5 27.8287C119.5 31.4451 116.568 34.3767 112.952 34.3767C109.336 34.3767 106.404 31.4451 106.404 27.8287C106.404 24.2124 109.336 21.2808 112.952 21.2808C116.568 21.2808 119.5 24.2124 119.5 27.8287Z" fill="url(#paint31_linear_110_4)"/>
<path d="M119.5 49.1096C119.5 52.7259 116.568 55.6575 112.952 55.6575C109.336 55.6575 106.404 52.7259 106.404 49.1096C106.404 45.4932 109.336 42.5616 112.952 42.5616C116.568 42.5616 119.5 45.4932 119.5 49.1096Z" fill="url(#paint32_linear_110_4)"/>
<path d="M119.5 70.3904C119.5 74.0067 116.568 76.9383 112.952 76.9383C109.336 76.9383 106.404 74.0067 106.404 70.3904C106.404 66.774 109.336 63.8424 112.952 63.8424C116.568 63.8424 119.5 66.774 119.5 70.3904Z" fill="url(#paint33_linear_110_4)"/>
<path d="M119.5 91.6712C119.5 95.2875 116.568 98.2191 112.952 98.2191C109.336 98.2191 106.404 95.2875 106.404 91.6712C106.404 88.0548 109.336 85.1232 112.952 85.1232C116.568 85.1232 119.5 88.0548 119.5 91.6712Z" fill="url(#paint34_linear_110_4)"/>
<path d="M119.5 112.952C119.5 116.568 116.568 119.5 112.952 119.5C109.336 119.5 106.404 116.568 106.404 112.952C106.404 109.336 109.336 106.404 112.952 106.404C116.568 106.404 119.5 109.336 119.5 112.952Z" fill="url(#paint35_linear_110_4)"/>
</g>
<defs>
<linearGradient id="paint0_linear_110_4" x1="119.5" y1="15.5514" x2="13.0959" y2="130.14" gradientUnits="userSpaceOnUse">
<stop stop-color="#00B9DB"/>
<stop offset="1" stop-color="#00387C"/>
</linearGradient>
<linearGradient id="paint1_linear_110_4" x1="119.5" y1="15.5514" x2="13.0959" y2="130.14" gradientUnits="userSpaceOnUse">
<stop stop-color="#00B9DB"/>
<stop offset="1" stop-color="#00387C"/>
</linearGradient>
<linearGradient id="paint2_linear_110_4" x1="119.5" y1="15.5514" x2="13.0959" y2="130.14" gradientUnits="userSpaceOnUse">
<stop stop-color="#00B9DB"/>
<stop offset="1" stop-color="#00387C"/>
</linearGradient>
<linearGradient id="paint3_linear_110_4" x1="119.5" y1="15.5514" x2="13.0959" y2="130.14" gradientUnits="userSpaceOnUse">
<stop stop-color="#00B9DB"/>
<stop offset="1" stop-color="#00387C"/>
</linearGradient>
<linearGradient id="paint4_linear_110_4" x1="119.5" y1="15.5514" x2="13.0959" y2="130.14" gradientUnits="userSpaceOnUse">
<stop stop-color="#00B9DB"/>
<stop offset="1" stop-color="#00387C"/>
</linearGradient>
<linearGradient id="paint5_linear_110_4" x1="119.5" y1="15.5514" x2="13.0959" y2="130.14" gradientUnits="userSpaceOnUse">
<stop stop-color="#00B9DB"/>
<stop offset="1" stop-color="#00387C"/>
</linearGradient>
<linearGradient id="paint6_linear_110_4" x1="119.5" y1="15.5514" x2="13.0959" y2="130.14" gradientUnits="userSpaceOnUse">
<stop stop-color="#00B9DB"/>
<stop offset="1" stop-color="#00387C"/>
</linearGradient>
<linearGradient id="paint7_linear_110_4" x1="119.5" y1="15.5514" x2="13.0959" y2="130.14" gradientUnits="userSpaceOnUse">
<stop stop-color="#00B9DB"/>
<stop offset="1" stop-color="#00387C"/>
</linearGradient>
<linearGradient id="paint8_linear_110_4" x1="119.5" y1="15.5514" x2="13.0959" y2="130.14" gradientUnits="userSpaceOnUse">
<stop stop-color="#00B9DB"/>
<stop offset="1" stop-color="#00387C"/>
</linearGradient>
<linearGradient id="paint9_linear_110_4" x1="119.5" y1="15.5514" x2="13.0959" y2="130.14" gradientUnits="userSpaceOnUse">
<stop stop-color="#00B9DB"/>
<stop offset="1" stop-color="#00387C"/>
</linearGradient>
<linearGradient id="paint10_linear_110_4" x1="119.5" y1="15.5514" x2="13.0959" y2="130.14" gradientUnits="userSpaceOnUse">
<stop stop-color="#00B9DB"/>
<stop offset="1" stop-color="#00387C"/>
</linearGradient>
<linearGradient id="paint11_linear_110_4" x1="119.5" y1="15.5514" x2="13.0959" y2="130.14" gradientUnits="userSpaceOnUse">
<stop stop-color="#00B9DB"/>
<stop offset="1" stop-color="#00387C"/>
</linearGradient>
<linearGradient id="paint12_linear_110_4" x1="119.5" y1="15.5514" x2="13.0959" y2="130.14" gradientUnits="userSpaceOnUse">
<stop stop-color="#00B9DB"/>
<stop offset="1" stop-color="#00387C"/>
</linearGradient>
<linearGradient id="paint13_linear_110_4" x1="119.5" y1="15.5514" x2="13.0959" y2="130.14" gradientUnits="userSpaceOnUse">
<stop stop-color="#00B9DB"/>
<stop offset="1" stop-color="#00387C"/>
</linearGradient>
<linearGradient id="paint14_linear_110_4" x1="119.5" y1="15.5514" x2="13.0959" y2="130.14" gradientUnits="userSpaceOnUse">
<stop stop-color="#00B9DB"/>
<stop offset="1" stop-color="#00387C"/>
</linearGradient>
<linearGradient id="paint15_linear_110_4" x1="119.5" y1="15.5514" x2="13.0959" y2="130.14" gradientUnits="userSpaceOnUse">
<stop stop-color="#00B9DB"/>
<stop offset="1" stop-color="#00387C"/>
</linearGradient>
<linearGradient id="paint16_linear_110_4" x1="119.5" y1="15.5514" x2="13.0959" y2="130.14" gradientUnits="userSpaceOnUse">
<stop stop-color="#00B9DB"/>
<stop offset="1" stop-color="#00387C"/>
</linearGradient>
<linearGradient id="paint17_linear_110_4" x1="119.5" y1="15.5514" x2="13.0959" y2="130.14" gradientUnits="userSpaceOnUse">
<stop stop-color="#00B9DB"/>
<stop offset="1" stop-color="#00387C"/>
</linearGradient>
<linearGradient id="paint18_linear_110_4" x1="119.5" y1="15.5514" x2="13.0959" y2="130.14" gradientUnits="userSpaceOnUse">
<stop stop-color="#00B9DB"/>
<stop offset="1" stop-color="#00387C"/>
</linearGradient>
<linearGradient id="paint19_linear_110_4" x1="119.5" y1="15.5514" x2="13.0959" y2="130.14" gradientUnits="userSpaceOnUse">
<stop stop-color="#00B9DB"/>
<stop offset="1" stop-color="#00387C"/>
</linearGradient>
<linearGradient id="paint20_linear_110_4" x1="119.5" y1="15.5514" x2="13.0959" y2="130.14" gradientUnits="userSpaceOnUse">
<stop stop-color="#00B9DB"/>
<stop offset="1" stop-color="#00387C"/>
</linearGradient>
<linearGradient id="paint21_linear_110_4" x1="119.5" y1="15.5514" x2="13.0959" y2="130.14" gradientUnits="userSpaceOnUse">
<stop stop-color="#00B9DB"/>
<stop offset="1" stop-color="#00387C"/>
</linearGradient>
<linearGradient id="paint22_linear_110_4" x1="119.5" y1="15.5514" x2="13.0959" y2="130.14" gradientUnits="userSpaceOnUse">
<stop stop-color="#00B9DB"/>
<stop offset="1" stop-color="#00387C"/>
</linearGradient>
<linearGradient id="paint23_linear_110_4" x1="119.5" y1="15.5514" x2="13.0959" y2="130.14" gradientUnits="userSpaceOnUse">
<stop stop-color="#00B9DB"/>
<stop offset="1" stop-color="#00387C"/>
</linearGradient>
<linearGradient id="paint24_linear_110_4" x1="119.5" y1="15.5514" x2="13.0959" y2="130.14" gradientUnits="userSpaceOnUse">
<stop stop-color="#00B9DB"/>
<stop offset="1" stop-color="#00387C"/>
</linearGradient>
<linearGradient id="paint25_linear_110_4" x1="119.5" y1="15.5514" x2="13.0959" y2="130.14" gradientUnits="userSpaceOnUse">
<stop stop-color="#00B9DB"/>
<stop offset="1" stop-color="#00387C"/>
</linearGradient>
<linearGradient id="paint26_linear_110_4" x1="119.5" y1="15.5514" x2="13.0959" y2="130.14" gradientUnits="userSpaceOnUse">
<stop stop-color="#00B9DB"/>
<stop offset="1" stop-color="#00387C"/>
</linearGradient>
<linearGradient id="paint27_linear_110_4" x1="119.5" y1="15.5514" x2="13.0959" y2="130.14" gradientUnits="userSpaceOnUse">
<stop stop-color="#00B9DB"/>
<stop offset="1" stop-color="#00387C"/>
</linearGradient>
<linearGradient id="paint28_linear_110_4" x1="119.5" y1="15.5514" x2="13.0959" y2="130.14" gradientUnits="userSpaceOnUse">
<stop stop-color="#00B9DB"/>
<stop offset="1" stop-color="#00387C"/>
</linearGradient>
<linearGradient id="paint29_linear_110_4" x1="119.5" y1="15.5514" x2="13.0959" y2="130.14" gradientUnits="userSpaceOnUse">
<stop stop-color="#00B9DB"/>
<stop offset="1" stop-color="#00387C"/>
</linearGradient>
<linearGradient id="paint30_linear_110_4" x1="119.5" y1="15.5514" x2="13.0959" y2="130.14" gradientUnits="userSpaceOnUse">
<stop stop-color="#00B9DB"/>
<stop offset="1" stop-color="#00387C"/>
</linearGradient>
<linearGradient id="paint31_linear_110_4" x1="119.5" y1="15.5514" x2="13.0959" y2="130.14" gradientUnits="userSpaceOnUse">
<stop stop-color="#00B9DB"/>
<stop offset="1" stop-color="#00387C"/>
</linearGradient>
<linearGradient id="paint32_linear_110_4" x1="119.5" y1="15.5514" x2="13.0959" y2="130.14" gradientUnits="userSpaceOnUse">
<stop stop-color="#00B9DB"/>
<stop offset="1" stop-color="#00387C"/>
</linearGradient>
<linearGradient id="paint33_linear_110_4" x1="119.5" y1="15.5514" x2="13.0959" y2="130.14" gradientUnits="userSpaceOnUse">
<stop stop-color="#00B9DB"/>
<stop offset="1" stop-color="#00387C"/>
</linearGradient>
<linearGradient id="paint34_linear_110_4" x1="119.5" y1="15.5514" x2="13.0959" y2="130.14" gradientUnits="userSpaceOnUse">
<stop stop-color="#00B9DB"/>
<stop offset="1" stop-color="#00387C"/>
</linearGradient>
<linearGradient id="paint35_linear_110_4" x1="119.5" y1="15.5514" x2="13.0959" y2="130.14" gradientUnits="userSpaceOnUse">
<stop stop-color="#00B9DB"/>
<stop offset="1" stop-color="#00387C"/>
</linearGradient>
</defs>
</svg>
