<svg width="35" height="39" viewBox="0 0 35 39" fill="none" xmlns="http://www.w3.org/2000/svg">
<path d="M33.3849 5.98463C27.8583 5.98463 20.5869 4.1187 17.995 0.661668C17.6502 0.24159 17.0305 0.181028 16.6105 0.52607C16.561 0.566689 16.5155 0.612136 16.4749 0.661742C13.8828 4.1184 6.61146 5.98463 1.08523 5.98463C0.560345 5.98463 0.13501 6.41012 0.13501 6.93515V19.2918C0.13501 29.7438 9.20642 36.0449 16.9742 38.2651C17.1446 38.3146 17.3254 38.3146 17.4958 38.2651C25.2636 36.0449 34.335 29.7438 34.335 19.2918V6.93515C34.335 6.41012 33.9096 5.98455 33.3849 5.98455V5.98463ZM32.4348 19.2917C32.4348 28.5705 24.3079 34.2587 17.235 36.3623C10.162 34.2587 2.03485 28.5706 2.03485 19.2918V7.86904C7.52615 7.68327 14.0196 5.91212 17.235 2.67633C20.4508 5.91212 26.9439 7.68327 32.435 7.86882V19.2918L32.4348 19.2917Z" fill="white"/>
<path d="M13.4351 15.49V17.391H12.485C11.9602 17.391 11.5349 17.8165 11.5349 18.3416V25.9456C11.5349 26.4706 11.9602 26.8962 12.485 26.8962H21.9849C22.5097 26.8962 22.9352 26.4706 22.9352 25.9456V18.3416C22.9352 17.8165 22.5097 17.391 21.9849 17.391H21.0349V15.49C21.0349 13.3901 19.3337 11.688 17.235 11.688C15.1362 11.688 13.4351 13.3901 13.4351 15.49ZM21.0349 24.9952H13.4351V19.292H21.0348L21.0349 24.9952ZM19.135 15.49V17.391H15.335V15.49C15.335 14.4402 16.1855 13.589 17.235 13.589C18.2842 13.589 19.135 14.4402 19.135 15.49Z" fill="white"/>
</svg>
