<svg width="38" height="38" viewBox="0 0 38 38" fill="none" xmlns="http://www.w3.org/2000/svg">
<path d="M17.4383 10.4521C17.4383 10.2289 17.6913 10.1331 17.9522 10.1331C18.2052 10.1331 18.4661 10.2288 18.4661 10.4521V14.1844C18.4661 15.5162 17.628 16.0107 16.5686 16.0107C15.5014 16.0107 14.6712 15.5162 14.6712 14.1844V10.4521C14.6712 10.2289 14.9243 10.1331 15.1851 10.1331C15.4381 10.1331 15.699 10.2288 15.699 10.4521V14.1844C15.699 14.8065 16.0232 15.1016 16.5686 15.1016C17.1142 15.1016 17.4383 14.8065 17.4383 14.1844V10.4521H17.4383ZM19.1619 10.6435C19.154 10.6117 19.146 10.5797 19.146 10.5638C19.146 10.3087 19.5177 10.1332 19.7943 10.1332C19.9683 10.1332 20.1026 10.189 20.1422 10.3406L21.3518 14.6629L22.5535 10.3406C22.5931 10.189 22.7274 10.1332 22.9014 10.1332C23.1781 10.1332 23.5496 10.3166 23.5496 10.5638C23.5496 10.5877 23.5417 10.6117 23.5338 10.6435L22.0159 15.6598C21.9448 15.899 21.6522 16.0107 21.3517 16.0107C21.0513 16.0107 20.7667 15.899 20.6876 15.6598L19.1619 10.6435ZM27.2538 22.0176C27.3583 22.1221 27.4997 22.1806 27.6469 22.1803C27.7941 22.1799 27.9352 22.1208 28.0393 22.0158C28.1433 21.9108 28.202 21.7685 28.2023 21.62C28.2026 21.4715 28.1446 21.3289 28.0409 21.2235L26.8292 20.0012C26.7242 19.8988 26.5835 19.8422 26.4375 19.8434C26.2915 19.8447 26.1518 19.9037 26.0486 20.0079C25.9453 20.112 25.8868 20.2529 25.8855 20.4002C25.8843 20.5475 25.9405 20.6894 26.042 20.7953L27.2538 22.0176ZM11.1706 5.794C11.2751 5.89853 11.4165 5.95703 11.5637 5.9567C11.7109 5.95637 11.852 5.89723 11.9561 5.79222C12.0601 5.68722 12.1188 5.5449 12.1191 5.3964C12.1194 5.24791 12.0614 5.10534 11.9577 4.99989L10.746 3.77754C10.6411 3.67517 10.5004 3.6185 10.3544 3.61975C10.2084 3.62101 10.0687 3.68008 9.96544 3.78423C9.86219 3.88839 9.80364 4.0293 9.80242 4.17659C9.80119 4.32388 9.85738 4.46575 9.95888 4.57165L11.1706 5.794ZM18.9999 2.85159C19.1475 2.85159 19.2891 2.79243 19.3935 2.68713C19.4979 2.58183 19.5565 2.43901 19.5565 2.29009V0.561499C19.5565 0.251327 19.3073 0 18.9999 0C18.6925 0 18.4433 0.251327 18.4433 0.561499V2.29009C18.4433 2.43901 18.5019 2.58183 18.6063 2.68713C18.7107 2.79243 18.8523 2.85159 18.9999 2.85159ZM18.4433 23.505V25.2337C18.4433 25.5439 18.6925 25.7952 18.9999 25.7952C19.3073 25.7952 19.5565 25.5439 19.5565 25.2337V23.505C19.5565 23.1948 19.3073 22.9435 18.9999 22.9435C18.6925 22.9435 18.4433 23.1948 18.4433 23.505ZM10.746 22.0176L11.9578 20.7953C12.0614 20.6898 12.1195 20.5473 12.1191 20.3988C12.1188 20.2503 12.0602 20.108 11.9561 20.003C11.852 19.898 11.711 19.8388 11.5637 19.8385C11.4165 19.8382 11.2752 19.8967 11.1706 20.0012L9.95888 21.2235C9.85524 21.3289 9.79723 21.4715 9.79754 21.62C9.79786 21.7685 9.85647 21.9108 9.96056 22.0158C10.0646 22.1208 10.2057 22.1799 10.3529 22.1803C10.5001 22.1806 10.6415 22.1221 10.746 22.0176ZM26.8292 5.794L28.041 4.57165C28.1447 4.4662 28.2027 4.32362 28.2023 4.17513C28.202 4.02664 28.1434 3.88432 28.0393 3.77931C27.9352 3.67431 27.7942 3.61517 27.647 3.61484C27.4997 3.6145 27.3584 3.67301 27.2538 3.77754L26.0421 4.99989C25.9384 5.10534 25.8804 5.24791 25.8807 5.3964C25.8811 5.5449 25.9397 5.68722 26.0438 5.79222C26.1479 5.89723 26.2889 5.95637 26.4361 5.9567C26.5833 5.95703 26.7247 5.89853 26.8292 5.794ZM6.77059 13.4591H8.48422C8.79164 13.4591 9.04086 13.2077 9.04086 12.8976C9.04086 12.5874 8.79164 12.3361 8.48422 12.3361H6.77059C6.46317 12.3361 6.21395 12.5874 6.21395 12.8976C6.21395 13.2077 6.4631 13.4591 6.77059 13.4591ZM29.5156 13.4591H31.2292C31.5366 13.4591 31.7859 13.2077 31.7859 12.8976C31.7859 12.5874 31.5366 12.3361 31.2292 12.3361H29.5156C29.2082 12.3361 28.959 12.5874 28.959 12.8976C28.959 13.2077 29.2082 13.4591 29.5156 13.4591ZM29.9815 36.0115C30.0673 36.0115 30.1519 35.9916 30.2288 35.9532C30.3057 35.9149 30.3727 35.8591 30.4247 35.7903C30.4767 35.7214 30.5122 35.6414 30.5285 35.5565C30.5447 35.4715 30.5413 35.3839 30.5185 35.3005L30.1497 33.9518C30.1303 33.8807 30.0972 33.8142 30.0522 33.756C30.0073 33.6979 29.9515 33.6492 29.8879 33.6128C29.8243 33.5764 29.7543 33.553 29.6817 33.5439C29.6092 33.5348 29.5356 33.5403 29.4651 33.5599C29.3228 33.5995 29.2019 33.6945 29.129 33.824C29.0562 33.9535 29.0373 34.1069 29.0765 34.2505L29.4453 35.5992C29.4777 35.7176 29.5477 35.822 29.6445 35.8965C29.7414 35.971 29.8598 36.0113 29.9815 36.0115ZM25.6625 36.0115C25.7483 36.0115 25.8329 35.9916 25.9098 35.9532C25.9867 35.9149 26.0537 35.8591 26.1057 35.7903C26.1577 35.7214 26.1932 35.6414 26.2095 35.5565C26.2257 35.4715 26.2223 35.3839 26.1995 35.3005L25.8307 33.9518C25.8113 33.8807 25.7782 33.8142 25.7332 33.756C25.6883 33.6979 25.6325 33.6492 25.5689 33.6128C25.5053 33.5764 25.4353 33.553 25.3627 33.5439C25.2902 33.5348 25.2166 33.5403 25.1461 33.5599C25.0038 33.5995 24.8829 33.6945 24.81 33.824C24.7371 33.9535 24.7183 34.1069 24.7575 34.2505L25.1263 35.5992C25.1587 35.7176 25.2287 35.822 25.3255 35.8965C25.4224 35.971 25.5407 36.0113 25.6625 36.0115ZM21.3435 36.0115C21.4293 36.0115 21.5139 35.9916 21.5908 35.9532C21.6677 35.9149 21.7347 35.8591 21.7867 35.7903C21.8387 35.7214 21.8742 35.6414 21.8905 35.5565C21.9067 35.4715 21.9033 35.3839 21.8805 35.3005L21.5117 33.9518C21.4724 33.8083 21.3782 33.6863 21.2499 33.6128C21.1215 33.5393 20.9694 33.5203 20.8271 33.5599C20.6848 33.5995 20.5639 33.6945 20.491 33.824C20.4181 33.9535 20.3992 34.1069 20.4385 34.2505L20.8073 35.5992C20.8397 35.7176 20.9097 35.822 21.0065 35.8965C21.1034 35.971 21.2217 36.0113 21.3435 36.0115ZM17.0245 36.0115C17.1103 36.0115 17.1949 35.9916 17.2718 35.9532C17.3487 35.9149 17.4157 35.8591 17.4677 35.7903C17.5197 35.7214 17.5552 35.6414 17.5714 35.5565C17.5877 35.4715 17.5843 35.3839 17.5615 35.3005L17.1927 33.9518C17.1732 33.8807 17.1401 33.8142 17.0952 33.756C17.0503 33.6979 16.9944 33.6492 16.9309 33.6128C16.8673 33.5764 16.7972 33.553 16.7247 33.5439C16.6522 33.5349 16.5785 33.5403 16.5081 33.5599C16.3658 33.5995 16.2449 33.6945 16.172 33.824C16.0991 33.9535 16.0802 34.1069 16.1195 34.2505L16.4883 35.5992C16.5207 35.7176 16.5906 35.822 16.6875 35.8965C16.7843 35.971 16.9027 36.0113 17.0245 36.0115ZM12.7054 36.0115C12.7912 36.0115 12.8758 35.9916 12.9527 35.9532C13.0296 35.9149 13.0966 35.8591 13.1486 35.7903C13.2006 35.7214 13.2361 35.6414 13.2524 35.5565C13.2686 35.4715 13.2652 35.3839 13.2424 35.3005L12.8736 33.9518C12.8542 33.8807 12.821 33.8142 12.7761 33.756C12.7312 33.6979 12.6754 33.6492 12.6118 33.6128C12.5482 33.5764 12.4782 33.553 12.4056 33.5439C12.3331 33.5348 12.2595 33.5403 12.189 33.5599C12.0467 33.5995 11.9258 33.6945 11.8529 33.824C11.78 33.9535 11.7611 34.1069 11.8004 34.2505L12.1692 35.5992C12.2016 35.7176 12.2716 35.822 12.3684 35.8965C12.4653 35.971 12.5836 36.0113 12.7054 36.0115ZM8.38648 36.0115C8.47225 36.0115 8.55688 35.9916 8.63375 35.9532C8.71063 35.9149 8.77767 35.8591 8.82965 35.7903C8.88164 35.7214 8.91715 35.6414 8.93342 35.5565C8.94969 35.4715 8.94628 35.3839 8.92345 35.3005L8.55466 33.9518C8.53523 33.8807 8.50211 33.8142 8.45719 33.756C8.41227 33.6979 8.35643 33.6492 8.29285 33.6128C8.22928 33.5764 8.15922 33.553 8.08667 33.5439C8.01413 33.5348 7.94053 33.5403 7.87006 33.5599C7.72775 33.5995 7.60685 33.6945 7.53398 33.824C7.4611 33.9535 7.44221 34.1069 7.48145 34.2505L7.85025 35.5992C7.88263 35.7176 7.95261 35.822 8.04946 35.8965C8.14631 35.971 8.2647 36.0114 8.38648 36.0115ZM4.06739 36.0115C4.15316 36.0115 4.23779 35.9916 4.31467 35.9532C4.39154 35.9149 4.45859 35.8591 4.51057 35.7903C4.56255 35.7214 4.59806 35.6414 4.61433 35.5565C4.6306 35.4715 4.62719 35.3839 4.60436 35.3005L4.23557 33.9518C4.1963 33.8083 4.10212 33.6863 3.97374 33.6128C3.84535 33.5393 3.69328 33.5203 3.55098 33.5599C3.40866 33.5995 3.28777 33.6945 3.21489 33.824C3.14201 33.9535 3.12312 34.1069 3.16237 34.2505L3.53116 35.5992C3.56356 35.7176 3.63354 35.822 3.73039 35.8965C3.82724 35.971 3.94562 36.0113 4.06739 36.0115ZM34.3005 36.0115C34.3863 36.0115 34.4709 35.9916 34.5478 35.9532C34.6247 35.9149 34.6917 35.8591 34.7437 35.7903C34.7957 35.7214 34.8312 35.6414 34.8475 35.5565C34.8638 35.4715 34.8603 35.3839 34.8375 35.3005L34.4687 33.9518C34.4295 33.8083 34.3353 33.6863 34.2069 33.6128C34.0785 33.5393 33.9264 33.5203 33.7841 33.5599C33.6418 33.5995 33.5209 33.6945 33.448 33.824C33.3752 33.9535 33.3563 34.1069 33.3955 34.2505L33.7643 35.5992C33.7967 35.7176 33.8667 35.822 33.9635 35.8965C34.0604 35.971 34.1788 36.0113 34.3005 36.0115Z" fill="white"/>
<path d="M36.7703 29.1583H24.9777C26.4738 28.5696 27.8865 27.7548 29.1825 26.7244C31.5727 24.824 33.4042 22.2702 34.4515 19.4129L34.7854 20.3599C34.8364 20.4982 34.9393 20.6106 35.0718 20.673C35.2043 20.7353 35.3559 20.7426 35.4937 20.6931C35.6315 20.6437 35.7444 20.5415 35.8082 20.4088C35.8719 20.276 35.8813 20.1232 35.8343 19.9835L34.9412 17.4507C34.8303 17.1363 34.4733 16.9883 34.1757 17.1328L31.9282 18.2222C31.8624 18.2542 31.8033 18.2989 31.7546 18.3538C31.7058 18.4088 31.6683 18.4729 31.6441 18.5425C31.6199 18.612 31.6095 18.6858 31.6136 18.7594C31.6176 18.833 31.636 18.9051 31.6677 18.9716C31.6993 19.038 31.7436 19.0976 31.7981 19.1468C31.8526 19.1959 31.9161 19.2338 31.9851 19.2582C32.054 19.2826 32.1271 19.2931 32.2001 19.289C32.2731 19.2849 32.3446 19.2664 32.4104 19.2344L33.5236 18.6948C32.57 21.492 30.8142 23.9972 28.4933 25.8425C25.765 28.0118 22.4822 29.1584 18.9999 29.1584C15.5177 29.1584 12.235 28.0118 9.50653 25.8425C7.18564 23.9972 5.42984 21.492 4.47628 18.6948L5.58941 19.2344C5.7221 19.2961 5.8735 19.3027 6.01096 19.2528C6.14842 19.2029 6.26092 19.1005 6.3242 18.9676C6.38748 18.8348 6.39646 18.6822 6.34921 18.5428C6.30195 18.4033 6.20225 18.2882 6.07161 18.2222L3.8242 17.1328C3.52613 16.9881 3.16936 17.1367 3.05863 17.4507L2.1657 19.9835C2.14121 20.0529 2.13051 20.1266 2.13424 20.2003C2.13796 20.2739 2.15603 20.3461 2.18741 20.4127C2.21878 20.4793 2.26286 20.539 2.31712 20.5884C2.37137 20.6378 2.43475 20.676 2.50362 20.7007C2.5725 20.7254 2.64552 20.7362 2.71853 20.7324C2.79153 20.7287 2.86309 20.7105 2.92911 20.6788C2.99514 20.6471 3.05433 20.6027 3.10332 20.548C3.15232 20.4932 3.19014 20.4293 3.21464 20.3598L3.54855 19.4128C4.59585 22.2702 6.42727 24.8239 8.81748 26.7243C10.1135 27.7547 11.5262 28.5695 13.0223 29.1582H1.22966C0.551668 29.1583 0 29.7147 0 30.3987V32.1122C0 32.2611 0.0586459 32.404 0.163036 32.5093C0.267427 32.6146 0.40901 32.6737 0.556641 32.6737H37.4434C37.591 32.6737 37.7326 32.6146 37.837 32.5093C37.9414 32.404 38 32.2611 38 32.1122V30.3987C38 29.7147 37.4483 29.1583 36.7703 29.1583ZM1.22966 30.2813H36.7703C36.8011 30.2813 36.8307 30.2937 36.8525 30.3157C36.8743 30.3377 36.8866 30.3676 36.8866 30.3987V31.5507H1.11328V30.3987C1.11332 30.3676 1.12559 30.3377 1.14741 30.3157C1.16923 30.2937 1.1988 30.2813 1.22966 30.2813ZM37.4434 36.8768H0.556641C0.249227 36.8768 0 37.1281 0 37.4383C0 37.7485 0.249227 37.9998 0.556641 37.9998H37.4434C37.7508 37.9998 38 37.7485 38 37.4383C38 37.1281 37.7508 36.8768 37.4434 36.8768Z" fill="white"/>
<path d="M26.2838 17.9046C26.3655 17.7816 26.3957 17.631 26.3679 17.4856C26.3401 17.3402 26.2565 17.2118 26.1352 17.1283C26.014 17.0448 25.8649 17.013 25.7206 17.0398C25.5762 17.0667 25.4482 17.1499 25.3644 17.2715C23.9263 19.3964 21.5471 20.665 19.0002 20.665C14.7543 20.665 11.3 17.1805 11.3 12.8976C11.3 12.2846 11.371 11.6746 11.5109 11.0842C11.5452 10.9394 11.5211 10.7867 11.4438 10.6598C11.3666 10.5329 11.2425 10.4421 11.0989 10.4075C10.8002 10.3357 10.4996 10.5215 10.4281 10.8231C10.2675 11.5027 10.1865 12.199 10.1868 12.8976C10.1868 17.7998 14.1405 21.788 19.0002 21.788C21.9152 21.788 24.6381 20.3363 26.2838 17.9046ZM11.6777 9.00466C11.7399 9.04342 11.809 9.06944 11.8812 9.08124C11.9533 9.09304 12.0271 9.09039 12.0982 9.07343C12.1694 9.05648 12.2365 9.02555 12.2958 8.98242C12.3551 8.93929 12.4053 8.8848 12.4438 8.82207C13.8593 6.51041 16.3102 5.13032 19.0001 5.13032C23.246 5.13032 26.7002 8.61476 26.7002 12.8976C26.7002 13.6197 26.6022 14.3343 26.4089 15.0218C26.3854 15.1053 26.3815 15.1932 26.3973 15.2786C26.4132 15.364 26.4485 15.4444 26.5004 15.5137C26.5523 15.583 26.6195 15.6392 26.6966 15.6779C26.7737 15.7166 26.8586 15.7367 26.9447 15.7367C27.0658 15.7366 27.1836 15.6966 27.2801 15.6229C27.3767 15.5492 27.4468 15.4458 27.4799 15.3283C27.7017 14.5375 27.814 13.7195 27.8135 12.8976C27.8135 7.99546 23.8598 4.00732 19.0001 4.00732C15.9214 4.00732 13.1164 5.58663 11.4967 8.23189C11.4191 8.35858 11.3946 8.51117 11.4285 8.65609C11.4625 8.80101 11.5521 8.9264 11.6777 9.00466Z" fill="white"/>
</svg>
