<svg width="36" height="38" viewBox="0 0 36 38" fill="none" xmlns="http://www.w3.org/2000/svg">
<path d="M10.178 27.3415V4.0712C10.178 2.99145 9.74906 1.95592 8.98557 1.19243C8.22207 0.428928 7.18654 0 6.10679 0C5.02705 0 3.99152 0.428928 3.22803 1.19243C2.46453 1.95592 2.0356 2.99145 2.0356 4.0712V27.3415C1.11376 28.166 0.463996 29.251 0.172291 30.4529C-0.119415 31.6548 -0.0393127 32.9169 0.401997 34.0722C0.843307 35.2276 1.62502 36.2217 2.6437 36.9231C3.66239 37.6245 4.87002 38 6.10679 38C7.34357 38 8.5512 37.6245 9.56989 36.9231C10.5886 36.2217 11.3703 35.2276 11.8116 34.0722C12.2529 32.9169 12.333 31.6548 12.0413 30.4529C11.7496 29.251 11.0998 28.166 10.178 27.3415ZM6.10679 36.6408C5.12294 36.6413 4.16321 36.3362 3.36031 35.7676C2.5574 35.199 1.95098 34.3949 1.62488 33.4667C1.29878 32.5385 1.2691 31.5318 1.53996 30.586C1.81083 29.6402 2.36884 28.8018 3.13686 28.1869C3.21654 28.1235 3.28091 28.0429 3.3252 27.9511C3.36948 27.8594 3.39254 27.7589 3.39266 27.657V4.0712C3.39266 3.35136 3.67862 2.66101 4.18761 2.15202C4.69661 1.64302 5.38696 1.35707 6.10679 1.35707C6.82663 1.35707 7.51698 1.64302 8.02597 2.15202C8.53497 2.66101 8.82092 3.35136 8.82092 4.0712V27.657C8.82095 27.759 8.84396 27.8596 8.88825 27.9515C8.93253 28.0434 8.99696 28.1241 9.07673 28.1876C9.84448 28.8026 10.4022 29.6409 10.6729 30.5866C10.9436 31.5323 10.9139 32.5387 10.5878 33.4668C10.2618 34.3949 9.65546 35.1988 8.85273 35.7673C8.05 36.3359 7.09049 36.6411 6.10679 36.6408Z" fill="white"/>
<path d="M8.14237 29.1792V4.74995C8.13987 4.21085 7.92461 3.69454 7.5434 3.31333C7.16219 2.93212 6.64588 2.71685 6.10677 2.71436C5.56707 2.71489 5.04962 2.92953 4.66798 3.31116C4.28635 3.6928 4.07172 4.21024 4.07118 4.74995V29.1792C3.50153 29.6064 3.08075 30.202 2.86843 30.8817C2.65612 31.5614 2.66304 32.2906 2.88821 32.9661C3.11338 33.6417 3.5454 34.2292 4.12305 34.6456C4.7007 35.0619 5.39471 35.286 6.10677 35.286C6.81883 35.286 7.51285 35.0619 8.0905 34.6456C8.66815 34.2292 9.10016 33.6417 9.32534 32.9661C9.55051 32.2906 9.55743 31.5614 9.34512 30.8817C9.1328 30.202 8.71202 29.6064 8.14237 29.1792ZM6.10677 4.07142C6.19722 4.07117 6.28675 4.08946 6.36985 4.12517C6.45294 4.16089 6.52783 4.21326 6.58989 4.27905C6.65248 4.34035 6.70206 4.41365 6.73564 4.49457C6.76922 4.57548 6.78611 4.66235 6.78531 4.74995V8.14262H5.42824V4.74995C5.42842 4.57005 5.49997 4.39757 5.62718 4.27036C5.75439 4.14315 5.92687 4.0716 6.10677 4.07142ZM6.10677 33.9269C5.6588 33.9275 5.22315 33.7802 4.86747 33.5079C4.51179 33.2355 4.25599 32.8534 4.13981 32.4207C4.02362 31.9881 4.05355 31.5292 4.22493 31.1153C4.39632 30.7014 4.69958 30.3557 5.08762 30.1318C5.19107 30.0723 5.27703 29.9866 5.33682 29.8834C5.39662 29.7801 5.42815 29.6629 5.42824 29.5435V9.49968H6.78531V29.5435C6.78533 29.6628 6.81676 29.78 6.87643 29.8832C6.93611 29.9865 7.02192 30.0722 7.12525 30.1318C7.51324 30.3556 7.81647 30.7013 7.98787 31.1151C8.15927 31.5289 8.18925 31.9878 8.07315 32.4204C7.95705 32.853 7.70137 33.2352 7.34581 33.5076C6.99024 33.78 6.55469 33.9274 6.10677 33.9269ZM14.2492 18.9991H11.535C11.3551 18.9991 11.1825 19.0706 11.0552 19.1979C10.928 19.3251 10.8565 19.4977 10.8565 19.6777C10.8565 19.8576 10.928 20.0302 11.0552 20.1575C11.1825 20.2847 11.3551 20.3562 11.535 20.3562H14.2492C14.4291 20.3562 14.6017 20.2847 14.729 20.1575C14.8562 20.0302 14.9277 19.8576 14.9277 19.6777C14.9277 19.4977 14.8562 19.3251 14.729 19.1979C14.6017 19.0706 14.4291 18.9991 14.2492 18.9991ZM14.2492 24.4274H11.535C11.3551 24.4274 11.1825 24.4989 11.0552 24.6261C10.928 24.7534 10.8565 24.926 10.8565 25.1059C10.8565 25.2859 10.928 25.4585 11.0552 25.5857C11.1825 25.713 11.3551 25.7845 11.535 25.7845H14.2492C14.4291 25.7845 14.6017 25.713 14.729 25.5857C14.8562 25.4585 14.9277 25.2859 14.9277 25.1059C14.9277 24.926 14.8562 24.7534 14.729 24.6261C14.6017 24.4989 14.4291 24.4274 14.2492 24.4274ZM14.2492 13.5709H11.535C11.3551 13.5709 11.1825 13.6424 11.0552 13.7696C10.928 13.8969 10.8565 14.0695 10.8565 14.2494C10.8565 14.4294 10.928 14.602 11.0552 14.7292C11.1825 14.8565 11.3551 14.9279 11.535 14.9279H14.2492C14.4291 14.9279 14.6017 14.8565 14.729 14.7292C14.8562 14.602 14.9277 14.4294 14.9277 14.2494C14.9277 14.0695 14.8562 13.8969 14.729 13.7696C14.6017 13.6424 14.4291 13.5709 14.2492 13.5709ZM14.2492 8.14262H11.535C11.3551 8.14262 11.1825 8.2141 11.0552 8.34135C10.928 8.4686 10.8565 8.64119 10.8565 8.82115C10.8565 9.00111 10.928 9.1737 11.0552 9.30094C11.1825 9.42819 11.3551 9.49968 11.535 9.49968H14.2492C14.4291 9.49968 14.6017 9.42819 14.729 9.30094C14.8562 9.1737 14.9277 9.00111 14.9277 8.82115C14.9277 8.64119 14.8562 8.4686 14.729 8.34135C14.6017 8.2141 14.4291 8.14262 14.2492 8.14262ZM11.535 17.6421H12.8921C13.0721 17.6421 13.2446 17.5706 13.3719 17.4433C13.4991 17.3161 13.5706 17.1435 13.5706 16.9635C13.5706 16.7836 13.4991 16.611 13.3719 16.4837C13.2446 16.3565 13.0721 16.285 12.8921 16.285H11.535C11.3551 16.285 11.1825 16.3565 11.0552 16.4837C10.928 16.611 10.8565 16.7836 10.8565 16.9635C10.8565 17.1435 10.928 17.3161 11.0552 17.4433C11.1825 17.5706 11.3551 17.6421 11.535 17.6421ZM11.535 23.0703H12.8921C13.0721 23.0703 13.2446 22.9988 13.3719 22.8716C13.4991 22.7443 13.5706 22.5718 13.5706 22.3918C13.5706 22.2118 13.4991 22.0393 13.3719 21.912C13.2446 21.7848 13.0721 21.7133 12.8921 21.7133H11.535C11.3551 21.7133 11.1825 21.7848 11.0552 21.912C10.928 22.0393 10.8565 22.2118 10.8565 22.3918C10.8565 22.5718 10.928 22.7443 11.0552 22.8716C11.1825 22.9988 11.3551 23.0703 11.535 23.0703ZM11.535 12.2138H12.8921C13.0721 12.2138 13.2446 12.1423 13.3719 12.0151C13.4991 11.8878 13.5706 11.7152 13.5706 11.5353C13.5706 11.3553 13.4991 11.1827 13.3719 11.0555C13.2446 10.9282 13.0721 10.8567 12.8921 10.8567H11.535C11.3551 10.8567 11.1825 10.9282 11.0552 11.0555C10.928 11.1827 10.8565 11.3553 10.8565 11.5353C10.8565 11.7152 10.928 11.8878 11.0552 12.0151C11.1825 12.1423 11.3551 12.2138 11.535 12.2138ZM25.7842 5.42849C24.979 5.42849 24.1919 5.66726 23.5224 6.11461C22.8529 6.56195 22.3311 7.19779 22.0229 7.9417C21.7148 8.68562 21.6342 9.5042 21.7913 10.2939C21.9483 11.0837 22.3361 11.8091 22.9054 12.3785C23.4748 12.9478 24.2002 13.3356 24.99 13.4927C25.7797 13.6497 26.5983 13.5691 27.3422 13.261C28.0861 12.9528 28.7219 12.431 29.1693 11.7615C29.6166 11.092 29.8554 10.3049 29.8554 9.49968C29.8542 8.42032 29.4248 7.38552 28.6616 6.6223C27.8984 5.85907 26.8636 5.42974 25.7842 5.42849ZM25.7842 12.2138C25.2474 12.2138 24.7227 12.0546 24.2763 11.7564C23.83 11.4582 23.4821 11.0343 23.2767 10.5383C23.0713 10.0424 23.0175 9.49667 23.1222 8.97018C23.227 8.44369 23.4855 7.96008 23.865 7.5805C24.2446 7.20092 24.7282 6.94243 25.2547 6.8377C25.7812 6.73298 26.3269 6.78673 26.8229 6.99215C27.3188 7.19758 27.7427 7.54546 28.0409 7.99179C28.3392 8.43813 28.4984 8.96288 28.4984 9.49968C28.4976 10.2193 28.2115 10.9092 27.7026 11.4181C27.1938 11.9269 26.5038 12.2131 25.7842 12.2138Z" fill="white"/>
<path d="M34.8107 8.94286L33.9184 8.32064C33.1893 7.81545 32.6538 7.07728 32.3998 6.22744C32.1458 5.37759 32.1884 4.46662 32.5206 3.6442C32.57 3.52089 32.5821 3.3858 32.5554 3.25569C32.5287 3.12558 32.4644 3.00617 32.3705 2.91225C32.2766 2.81833 32.1572 2.75404 32.027 2.72735C31.8969 2.70066 31.7618 2.71275 31.6385 2.7621C30.8163 3.09438 29.9055 3.13701 29.0559 2.88298C28.2063 2.62895 27.4683 2.09338 26.9634 1.36433L26.3406 0.472734C26.2746 0.388025 26.1903 0.319484 26.0938 0.272338C25.9974 0.225191 25.8915 0.200684 25.7842 0.200684C25.6768 0.200684 25.5709 0.225191 25.4745 0.272338C25.3781 0.319484 25.2937 0.388025 25.2278 0.472734L24.6042 1.365C24.0993 2.09406 23.3614 2.62963 22.5117 2.88366C21.6621 3.13769 20.7513 3.09506 19.9291 2.76278C19.8058 2.71342 19.6707 2.70134 19.5406 2.72803C19.4105 2.75472 19.2911 2.81901 19.1972 2.91293C19.1032 3.00685 19.0389 3.12626 19.0123 3.25637C18.9856 3.38648 18.9977 3.52157 19.047 3.64487C19.3791 4.46721 19.4216 5.37803 19.1676 6.22773C18.9136 7.07743 18.3782 7.81548 17.6492 8.32064L16.757 8.94354C16.6674 9.00607 16.5942 9.08931 16.5437 9.18618C16.4932 9.28305 16.4668 9.39068 16.4668 9.49993C16.4668 9.60918 16.4932 9.71682 16.5437 9.81369C16.5942 9.91056 16.6674 9.9938 16.757 10.0563L17.6492 10.6785C18.3783 11.1837 18.9138 11.9219 19.1679 12.7717C19.4219 13.6216 19.3793 14.5326 19.047 15.355C18.9978 15.4783 18.9859 15.6133 19.0127 15.7432C19.0395 15.8732 19.1038 15.9925 19.1977 16.0863C19.2915 16.1801 19.4109 16.2443 19.5409 16.271C19.6709 16.2977 19.8059 16.2857 19.9291 16.2364C20.7513 15.9041 21.6621 15.8615 22.5117 16.1155C23.3614 16.3696 24.0993 16.9051 24.6042 17.6342L25.2271 18.5258C25.2897 18.6154 25.373 18.6885 25.4699 18.739C25.5668 18.7895 25.6745 18.8159 25.7838 18.8159C25.8931 18.8159 26.0008 18.7895 26.0977 18.739C26.1946 18.6885 26.2779 18.6154 26.3406 18.5258L26.9634 17.6335C27.4684 16.9045 28.2063 16.3691 29.056 16.115C29.9056 15.861 30.8163 15.9036 31.6385 16.2357C31.7618 16.285 31.8968 16.297 32.0268 16.2703C32.1568 16.2437 32.2761 16.1794 32.37 16.0856C32.4639 15.9918 32.5282 15.8725 32.5549 15.7426C32.5817 15.6126 32.5698 15.4776 32.5206 15.3543C32.1886 14.532 32.146 13.6212 32.4 12.7715C32.6541 11.9218 33.1895 11.1837 33.9184 10.6785L34.8107 10.0557C34.9003 9.99312 34.9734 9.90988 35.0239 9.81301C35.0745 9.71614 35.1008 9.60851 35.1008 9.49925C35.1008 9.39 35.0745 9.28237 35.0239 9.1855C34.9734 9.08863 34.9003 9.00539 34.8107 8.94286ZM33.1415 9.56507C32.3366 10.1229 31.7036 10.8944 31.3137 11.7927C30.9238 12.6911 30.7926 13.6804 30.9349 14.6493C29.9659 14.5068 28.9764 14.6379 28.078 15.0279C27.1796 15.418 26.4082 16.0513 25.8507 16.8566L25.7842 16.9516L25.7177 16.8566C25.1602 16.0513 24.3887 15.4179 23.4903 15.0278C22.5919 14.6378 21.6024 14.5067 20.6334 14.6493C20.7755 13.6805 20.6441 12.6912 20.2542 11.793C19.8642 10.8948 19.231 10.1234 18.4262 9.56575L18.3312 9.49925L18.4262 9.43276C19.231 8.87509 19.8642 8.10368 20.2542 7.20549C20.6441 6.3073 20.7755 5.31803 20.6334 4.34919C21.6022 4.4906 22.5913 4.35901 23.4895 3.96921C24.3876 3.57941 25.1593 2.94684 25.7177 2.1426L25.7842 2.04693L25.8507 2.14192C26.4087 2.94664 27.1802 3.5796 28.0785 3.96957C28.9767 4.35953 29.966 4.49101 30.9349 4.34919C30.7928 5.31803 30.9242 6.3073 31.3142 7.20549C31.7042 8.10368 32.3373 8.87509 33.1422 9.43276L33.2372 9.49925L33.1415 9.56507Z" fill="white"/>
</svg>
